<?xml version="1.0" encoding="utf-8"?>
<!-- Generator: Adobe Illustrator 27.5.0, SVG Export Plug-In . SVG Version: 6.00 Build 0)  -->
<svg version="1.1" xmlns="http://www.w3.org/2000/svg" xmlns:xlink="http://www.w3.org/1999/xlink" x="0px" y="0px"
	 viewBox="0 0 500 500" style="enable-background:new 0 0 500 500;" xml:space="preserve">
<g id="BACKGROUND">
	<g>
		<g>
			<rect x="0.469" y="-0.295" style="fill:#C2F2F1;" width="500.335" height="500.295"/>
		</g>
		<path style="fill:#E1FFFD;" d="M263.666,397.676c-144.977-3.593-196.139-20.917-207.285-89.057s26.446-127.587,59.536-150.518
			c33.09-22.931,69.721-111.751,154.986-111.751c85.264,0,146.759,80.573,168.282,123.323
			C460.708,212.423,542.823,404.594,263.666,397.676z"/>
		<path style="fill:#91CECB;" d="M273.101,479.925c100.993,0,181.626-9.326,185.47-25.443c3.843-16.117-70.698-25.416-191.47-25.416
			s-205.563,8.095-204.714,25.416C63.236,471.803,188.623,479.925,273.101,479.925z"/>
	</g>
</g>
<g id="OBJECTS">
	<g>
		<g>
			<g>
				<path style="fill:#222328;" d="M167.393,391.802c-11.066,1.296-23.542,7.782-33.941,14.544l-10.47-67.837l94.193,5.164
					l-7.544,57.068C204.091,397.601,187.446,389.453,167.393,391.802z"/>
				<path style="fill:#37373A;" d="M167.393,391.802c20.054-2.349,36.699,5.799,42.238,8.939l-6.3,47.66
					c0,0-11.977,8.056-32.014,8.056c-20.037,0-31.811-10.876-31.811-10.876l-6.055-39.234
					C143.851,399.585,156.327,393.099,167.393,391.802z"/>
			</g>
			<path style="fill:#FFA440;" d="M233.241,338.096c-1.328,3.775-43.436,29.941-48.703,30.101
				c-5.267,0.16-73.227-19.993-76.841-23.136c-3.615-3.143-2.066-22.87,0-25.142c2.066-2.272,68.476-16.215,70.851-16.732
				c2.375-0.516,50.701,11.942,53.84,13.957C235.527,319.159,234.331,334.997,233.241,338.096z"/>
		</g>
		<g>
			<path style="fill:#DADDE5;" d="M214.307,423.92c0,0-2.892,10.951,0,18.697c2.892,7.746,14.991,16.938,10.232,22.722
				c-4.758,5.784-26.035-13.215-28.41-14.56c-2.375-1.345-0.826-13.739,0-17.664c0.826-3.925,5.784-14.459,5.784-14.459
				L214.307,423.92z"/>
			<path style="fill:#FFFFFF;" d="M184.355,431.876c0,0-1.033,18.591,0,21.276c1.033,2.685,19.727,15.389,25.614,16.318
				c5.887,0.93,13.648-1.343,14.57-4.131c0.922-2.789-11.582-13.633-17.466-18.178s-6.813-12.497-7.02-15.286H184.355z"/>
			<g>
				<path style="fill:#6FD5DD;" d="M203.566,343.053c-2.375-33.153-24.788-42.345-24.788-42.345
					c-17.248,2.066-31.811,19.21-31.811,19.21c5.681,9.605,17.971,20.656,17.971,20.656c-1.549,3.512-1.239,11.981-1.239,11.981
					s0.503,26.027,6.655,47.923c6.152,21.896,10.283,33.876,10.283,33.876s12.748,4.704,21.483,0c0,0,1.283-4.249,1.446-8.056
					C203.566,426.298,205.941,376.207,203.566,343.053z"/>
				<path style="fill:#12AAB5;" d="M222.569,289.553c-13.013-8.572-29.745-16.25-29.745-16.25h-59.284
					c0,0-8.882,26.991-4.751,47.647c4.131,20.656,34.909,31.604,34.909,31.604s-0.31-8.469,1.239-11.981
					c0,0-12.29-11.051-17.971-20.656c0,0,14.563-17.145,31.811-19.21c0,0,22.412,9.192,24.788,42.345
					c2.376,33.153,0,83.245,0,83.245s6.404,5.233,14.873,3.443c0,0,15.736-47.144,22.146-76.953
					c-8.785,9.076-23.515,4.701-26.691,0.8c-3.615-4.441-6.713-20.243-6.817-22.839c-0.103-2.596,1.962-18.783,14.046-21.711
					c7.559-1.831,15.28,2.725,20.002,6.393C237.88,303.753,231.204,295.242,222.569,289.553z"/>
				<path style="fill:#6FD5DD;" d="M221.124,309.038c-12.084,2.928-14.15,19.115-14.046,21.711
					c0.103,2.596,3.202,18.398,6.817,22.839c3.176,3.901,17.906,8.276,26.691-0.8c1.483-6.894,2.466-12.862,2.641-17.104
					c0.313-7.598-0.454-14.332-2.1-20.253C236.404,311.763,228.683,307.207,221.124,309.038z"/>
			</g>
		</g>
		<g>
			<path style="fill:#C16240;" d="M250.662,190.816c-7.849-18.797-23.548-22.506-23.548-22.506v46.135
				c11.563,10.935,27.865,15.742,36.552,17.634C260.571,222.179,256.905,205.765,250.662,190.816z"/>
			<path style="fill:#893820;" d="M283.835,273.304c-3.905-13.564-14.169-27.438-17.858-35.002
				c-0.755-1.548-1.515-3.673-2.311-6.222c-8.687-1.892-24.989-6.699-36.552-17.634v6.735c0,0,7.54,8.159,11.469,15.079
				c3.929,6.92,8.981,25.51,14.971,33.876c5.99,8.366,24.615,36.149,24.615,36.149l15.458-6.507
				C293.627,299.778,287.74,286.868,283.835,273.304z"/>
		</g>
		<g>
			<path style="fill:#C16240;" d="M193.575,182.001c15.914-1.322,25.273-8.191,30.658-14.74c-5.215-1.95-15.948-6.201-18.809-9.158
				c-0.545-0.563-0.976-1.335-1.32-2.237c-3.765,1.638-7.873,2.6-12.02,2.108c-7.06-0.838-13.092-4.738-17.472-8.584
				c-0.766,2.221-1.655,4.099-2.652,5.046c-2.331,2.215-13.617,7.651-21.344,11.235
				C158.417,173.294,173.027,183.708,193.575,182.001z"/>
			<path style="fill:#893820;" d="M204.105,155.865c-2.066-5.418-0.869-15.678-0.869-15.678l-25.45-4.844
				c0,0-1.16,8.212-3.172,14.046c4.38,3.846,10.412,7.745,17.472,8.584C196.232,158.465,200.34,157.503,204.105,155.865z"/>
			<path style="fill:#FFA440;" d="M140.541,212.439l-3.282,53.956c0,0,31.088,16.446,68.372,8.906c0,0,23.238-32.947,27.266-61.762
				c0.226-1.614,0.402-3.184,0.545-4.72c-6.975,6.175-17.784,13.34-32.769,16.674C175.395,231.117,147.477,216.42,140.541,212.439z"
				/>
			<path style="fill:#FFD150;" d="M227.114,168.311c0,0-1.13-0.396-2.88-1.05c-5.385,6.55-14.744,13.419-30.658,14.74
				c-20.549,1.707-35.158-8.707-42.958-16.331c-4.256,1.974-7.437,3.389-7.437,3.389l-2.639,43.38
				c6.936,3.981,34.854,18.678,60.133,13.054c14.984-3.334,25.794-10.499,32.769-16.674
				C235.851,182.941,227.114,168.311,227.114,168.311z"/>
		</g>
		<g>
			<g>
				<path style="fill:#C9C9C0;" d="M143.128,47.488c-6.155,5.963-7.037,15.528-6.178,19.35c1.239,5.514,11.258,10.472,11.258,10.472
					l24.581-16.942c0,0-0.391-5.114-3.046-9.881c-3.484,1.994-7.84,3.647-12.653,3.585
					C150.613,53.987,145.997,50.583,143.128,47.488z"/>
				<path style="fill:#E8E8E2;" d="M154.714,42.495c-5.104,0.415-8.86,2.352-11.586,4.993c2.87,3.095,7.485,6.499,13.962,6.583
					c4.814,0.063,9.169-1.591,12.653-3.585C167.25,46.011,162.765,41.841,154.714,42.495z"/>
			</g>
			<g>
				<path style="fill:#E8E8E2;" d="M161.427,83.713c16.732-2.221,29.125-20.76,29.125-20.76s13.9,12.544,28.477,9.637
					c-1.118-5.925-3.581-11.795-8.464-16.144c-14.9-13.272-34.679-3.615-38.707-0.413c0,0-16.448-2.014-24.233,11.568
					c-2.06,3.594-3.56,8.075-4.396,12.835C146.839,82.74,152.696,84.872,161.427,83.713z M198.298,53.452
					c9.76,3.202,12.267,14.718,12.267,14.718s-5.089-8.882-15.159-10.483c-10.07-1.601-17.267-0.93-17.267-0.93
					S188.538,50.25,198.298,53.452z"/>
				<path style="fill:#C9C9C0;" d="M219.029,72.591c-14.577,2.907-28.477-9.637-28.477-9.637s-12.394,18.539-29.125,20.76
					c-8.73,1.159-14.588-0.973-18.198-3.277c-2.326,13.229,0.516,28.626,11.051,33.224l19.024,4.007l44.618-20.528
					C217.922,97.14,221.322,84.746,219.029,72.591z"/>
				<path style="fill:#FFFFFF;" d="M195.406,57.686c10.07,1.601,15.159,10.483,15.159,10.483s-2.507-11.516-12.267-14.718
					c-9.76-3.202-20.159,3.305-20.159,3.305S185.337,56.085,195.406,57.686z"/>
			</g>
			<g>
				<g>
					<path style="fill:#C16240;" d="M210.565,109.472c-2.46-6.566-7.036-10.559-7.294-10.317c-0.286,0.269,1.225,2.794,2.046,5.453
						c0.479,1.55,0.956,3.382,1.271,4.643c-8.535,1.673-25.079,12.856-25.079,12.856l-16.189-16.163
						c1.075-1.576,2.191-3.868,2.827-7.101c1.498-7.618,1.128-9.45,1.128-9.45c18.384-10.638,21.069-21.224,21.069-21.224
						s7.849,10.38,23.445,11.051c0,0,5.344,12.81,7.44,25.188c0.63,3.722,0.727,7.516,0.456,11.2
						C217.695,112.789,213.688,110.393,210.565,109.472z"/>
					<path style="fill:#893820;" d="M203.271,99.155c0.258-0.242,4.834,3.751,7.294,10.317c-1.099-0.324-2.094-0.476-2.932-0.386
						c-0.331,0.035-0.683,0.095-1.044,0.166c-0.316-1.262-0.793-3.093-1.271-4.643C204.496,101.949,202.985,99.424,203.271,99.155z"
						/>
					<path style="fill:#12AAB5;" d="M183.457,125.676c1.786-2.656,17.711-12.023,24.103-12.015
						c2.991,0.004,8.542,3.149,13.602,6.494c-1.067,6.783-3.267,12.87-5.573,16.948c-4.021,7.111-6.964,8.641-13.204,10.365
						c-5.11,1.411-12.547-0.594-19.865-4.462C182.332,137.337,182.202,127.541,183.457,125.676z"/>
					<path style="fill:#C16240;" d="M150.175,104.777c4.748-3.375,10.343,2.115,12.308,4.119l16.446,17.14
						c-1.033,2.603-1.219,9.444-1.217,14.151c0,0,0,0,0,0c-8.725-5.638-10.967-8.745-12.175-10.916
						c-1.208-2.171-2.566-6.664-2.566-6.664s-2.091,4.658-8.727,0.705C147.609,119.358,145.427,108.152,150.175,104.777z"/>
					<path style="fill:#C2F2F1;" d="M178.929,126.036l-16.446-17.14c0,0,1.381-0.814,2.838-2.951l16.189,16.163
						c0,0,16.544-11.183,25.079-12.856c0.226,0.902,0.37,1.515,0.37,1.515s-0.144-0.613-0.37-1.515
						c0.361-0.071,0.714-0.131,1.044-0.166c0.838-0.089,1.833,0.062,2.932,0.386c0.27,0.72,0.522,1.462,0.732,2.242
						c-0.21-0.78-0.462-1.522-0.732-2.242c3.123,0.921,7.13,3.317,11.122,6.136c-0.113,1.54-0.291,3.06-0.525,4.547
						c-5.06-3.346-10.611-6.491-13.602-6.494c-6.392-0.008-22.317,9.36-24.103,12.015c-1.255,1.865-1.125,11.661-0.936,17.33
						c-1.617-0.855-3.229-1.798-4.808-2.819C177.71,135.48,177.896,128.639,178.929,126.036z"/>
				</g>
				<g>
					<path style="fill:#893820;" d="M160.892,117.339c0.678-0.338-5.169-9.948-6.382-8.755c-1.213,1.193,2.751,6.362,2.751,6.362
						s-3.247-0.021-2.895,1.443C154.718,117.853,159.781,117.893,160.892,117.339z"/>
					<path d="M186.143,102.566c2.607-0.624,4.677-0.062,5.182-0.397c0.505-0.336,0.356-2.573-0.4-2.826
						c-0.757-0.253-6.29-0.983-8.784,2.277c-2.493,3.26-1.655,5.532-1.218,5.314C181.36,106.715,182.576,103.42,186.143,102.566z"/>
					<path style="fill:#E8E8E2;" d="M181.853,88.734c0.337-0.639-0.988-3.5-1.712-3.434c-0.723,0.066-6.986,3.945-5.559,6.386
						C176.009,94.126,181.162,90.045,181.853,88.734z"/>
					<path d="M210.625,96.203c-1.608,1.12-2.288,2.817-2.721,2.87c-0.433,0.053-1.625-1.748-1.403-2.404
						c0.222-0.657,2.475-4.603,5.518-3.64c3.042,0.964,3.921,3.213,3.587,3.314C215.272,96.445,212.825,94.671,210.625,96.203z"/>
					<path style="fill:#E8E8E2;" d="M204.441,84.521c-0.458-0.379-0.831-3.509-0.376-3.818c0.455-0.309,5.732-0.149,5.875,2.672
						C210.083,86.196,205.381,85.298,204.441,84.521z"/>
				</g>
			</g>
			<path style="fill:#893820;" d="M179.122,107.158c-0.515-0.824-5.061-0.189-4.957,0.585c0.103,0.775,3.167,0,3.167,0
				s-2.771,1.463-2.066,2.1c0.706,0.637,2.823-1.54,2.823-1.54s-0.534,2.057,0.138,2.263
				C178.899,110.773,179.467,107.709,179.122,107.158z"/>
			<path style="fill:#893820;" d="M215.977,97.326c-0.054-0.734,2.621-1.665,2.875-1.09c0.254,0.575-1.688,0.959-1.688,0.959
				s2.06,0.188,1.938,0.849c-0.122,0.661-2.118-0.227-2.118-0.227s1.104,1.282,0.829,1.631
				C217.538,99.796,216.013,97.817,215.977,97.326z"/>
		</g>
		<g>
			<path style="fill:#893820;" d="M127.344,264.768c-5.532-3.825-9.046-15.63-11.175-26.466
				c-0.757,16.521,0.333,30.639,1.398,32.523c1.79,3.167,9.915,8.607,27.955,10.466c18.04,1.859,49.988-1.446,49.988-1.446
				l-2.685-6.541C192.824,273.304,138.395,272.409,127.344,264.768z"/>
			<path style="fill:#C16240;" d="M223.189,297.265c-0.758-3.512-7.023-23.204-10.466-26.715
				c-3.443-3.512-10.741-7.436-24.512-11.258c-13.771-3.821-40.279-7.333-40.279-7.333s4.613-18.522,4.75-41.037
				c0.138-22.515-9.502-41.863-9.502-41.863c-5.99,3.443-15.354,9.64-22.309,35.253c-2.817,10.376-4.188,22.74-4.703,33.99
				c2.129,10.836,5.643,22.641,11.175,26.466c11.051,7.641,65.481,8.536,65.481,8.536l2.685,6.541
				c2.203,9.502,7.436,16.456,7.436,16.456c-1.033,3.374-0.689,11.292-0.689,11.292s-5.99,7.023-5.508,8.813
				c0.482,1.79,3.167,0.62,4.544-0.689c1.377-1.308,6.059-8.4,6.059-8.4s-1.171,2.685-2.892,5.922
				c-1.721,3.236-1.377,9.295,0.275,9.134c1.653-0.162,4.062-5.829,4.958-7.894c0.895-2.066,2.479-10.604,2.479-10.604
				s-0.344,5.026-0.413,8.4c-0.069,3.374,0.344,11.843,3.305,9.777c2.961-2.066,2.617-18.882,2.617-18.882s0.62,4.009,1.239,8.278
				c0.62,4.269,1.652,9.984,4.269,9.64C225.806,320.745,223.947,300.777,223.189,297.265z"/>
		</g>
	</g>
	<g>
		<g>
			<g>
				<path style="fill:#222328;" d="M350.845,391.802c11.066,1.296,23.542,7.782,33.941,14.544l10.47-67.837l-94.193,5.164
					l7.543,57.068C314.147,397.601,330.792,389.453,350.845,391.802z"/>
				<path style="fill:#37373A;" d="M350.845,391.802c-20.054-2.349-36.699,5.799-42.238,8.939l6.3,47.66
					c0,0,11.977,8.056,32.013,8.056c20.037,0,31.811-10.876,31.811-10.876l6.055-39.234
					C374.387,399.585,361.911,393.099,350.845,391.802z"/>
			</g>
			<path style="fill:#FFA440;" d="M284.997,338.096c1.328,3.775,43.436,29.941,48.703,30.101
				c5.267,0.16,73.227-19.993,76.841-23.136c3.615-3.143,2.066-22.87,0-25.142c-2.066-2.272-68.476-16.215-70.851-16.732
				c-2.375-0.516-50.701,11.942-53.84,13.957C282.711,319.159,283.907,334.997,284.997,338.096z"/>
		</g>
		<path style="fill:#222328;" d="M264.506,417.623c0,0,2.056,12.648-5.86,18.993c-7.915,6.345-24.165,11.578-24.716,13.782
			c-0.551,2.203,0.335,7.161,3.059,7.712c2.725,0.551,45.387-9.227,47.329-10.466c1.942-1.239-0.399-23.961-5.495-31.398
			L264.506,417.623z"/>
		<path style="fill:#37373A;" d="M275.243,429.741c0,0-3.167,8.813-5.233,9.364c-2.066,0.551-28.506,0-30.847,1.377
			c-2.341,1.377-2.617,6.472-1.653,7.161c0.964,0.689,18.186,6.885,26.995,8.813c8.809,1.928,19.826,3.305,21.754,2.754
			c1.928-0.551,4.682-20.794,4.682-27.266L275.243,429.741z"/>
		<polygon style="fill:#B1B7C4;" points="314.215,273.304 307.57,291.619 335.747,289.829 338.038,277.711 		"/>
		<g>
			<path style="fill:#636577;" d="M327.297,330.75c7.953-6.416,20.656-18.061,20.656-18.061
				c-11.981-10.431-26.647-12.91-26.647-12.91s0,0-21.689,12.497c-21.689,12.497-27.163,20.037-29.332,35.322
				c-2.169,15.286-3.099,77.048-3.099,77.048v7.436c0,0,13.22,8.263,28.919,2.479l14.46-84.898l1.033-9.915
				C311.598,339.748,319.344,337.166,327.297,330.75z"/>
			<path style="fill:#636577;" d="M264.572,329.42c13.873-5.681,55.324-35.694,55.324-35.694l-8.594-6.399l-10.444,4.292
				c0,0-31.811,9.708-41.313,17.351c-5.955,4.79-9.191,12.46-10.803,19.425C253.116,330.609,258.634,331.852,264.572,329.42z"/>
			<path style="fill:#46495E;" d="M379.764,273.304l-50.608,0.48l-2.685,9.366l-10.535,2.272l-4.635,1.905l8.594,6.399
				c0,0-41.45,30.014-55.324,35.694c-5.938,2.431-11.456,1.189-15.83-1.024c-0.96,4.149-1.346,8.048-1.384,10.939
				c-0.103,7.746,14.046,84.071,14.046,84.071s2.685,2.375,5.784,1.24c0,0,0.93-61.763,3.099-77.048
				c2.169-15.286,7.643-22.825,29.332-35.322c21.689-12.497,21.689-12.497,21.689-12.497s14.666,2.479,26.647,12.91
				c0,0-12.704,11.645-20.656,18.061s-15.699,8.998-15.699,8.998l-1.033,9.915c0,0,53.19-17.145,65.274-25.82
				C387.923,315.167,379.764,273.304,379.764,273.304z"/>
		</g>
		<g>
			<path style="fill:#E5906E;" d="M260.678,197.289c0,0,3.824,1.859,6.716,1.997c2.892,0.138,2.996-0.207,3.977,0.344
				c0.981,0.551,4.148,5.44,4.148,5.44l12.049-7.436c0,0-2.616-5.524-4.269-8.666c-1.652-3.142-3.821-5.587-4.958-9.029
				c-1.136-3.443-3.064-6.713-5.577-7.092c-2.513-0.379-6.679-0.379-8.263-0.757c-1.584-0.379-3.856-0.172-4.407,1.859
				c-0.551,2.031,0.792,3.649,3.512,4.751C266.327,179.8,260.678,197.289,260.678,197.289z"/>
			<g>
				<path style="fill:#C2F2F1;" d="M244.052,184.551c0,0-4.889,2.1-5.302,2.548c-0.413,0.448-0.034,1.756,0.826,1.859
					c0.861,0.103,5.784-0.688,5.784-0.688l24.788-7.092l0.344-1.171l2.685-0.964c0,0,0.551,2.375,1.584,2.203
					s-1.308-6.541-2.272-6.197c-0.964,0.344-0.138,2.421-0.138,2.421l-3.305,1.091l-1.859-0.551L244.052,184.551z"/>
				<path style="fill:#12AAB5;" d="M243.295,183.311c0,0-0.757,4.613,1.859,6.679l8.4-2.066l17.817-5.577
					c0,0-0.328-4.579-2.531-6.197L243.295,183.311z"/>
			</g>
			<path style="fill:#FFCCB3;" d="M267.6,186.547c1.225-2.718-3.443-6.059-5.302-7.505c-1.859-1.446-3.512-1.928-4.613-1.308
				c-1.102,0.62-1.48,2.341-0.964,3.718c0.516,1.377,3.718,4.131,3.718,4.131l-6.885,2.341c0,0,0.034,2.066,2.203,2.754
				c0,0-2.031,1.67-1.308,3.055c0.723,1.386,2.961,1.627,2.961,1.627s-2.209,2.307,1.237,3.718c3.446,1.411,6.647,0.826,7.233-0.688
				c0.585-1.515-1.79-2.857-2.134-2.892c-0.344-0.035,0.344,0.034,0.344,0.034s2.995-0.448,3.374-2.307
				c0.379-1.859-3.236-2.685-3.236-2.685s2.651,0.069,3.167-1.515c0.516-1.584-1.308-2.134-1.308-2.134
				S267.281,187.255,267.6,186.547z"/>
		</g>
		<g>
			<path style="fill:#6FD5DD;" d="M332.392,172.501c0.602,1.06,1.944,3.541,3.355,6.081c0.768-4.157,1.258-6.769,1.258-6.769
				s-0.49,2.613-1.258,6.769c1.978,3.561,4.093,7.237,4.495,7.278v-3.444v3.444c0.689,0.07,6.333-11.706,6.333-11.706
				s6.681,11.636,7.438,11.705l0.275-5.095l-0.275,5.095c0.58,0.053,3.874-2.085,8.014-5.811c0.121-2.661,0.173-4.104,0.173-4.104
				s-0.052,1.443-0.173,4.104c1.262-1.136,2.599-2.413,3.966-3.828c5.853-6.059,11.155-15.561,11.155-15.561
				s-1.102-7.436-3.994-11.361c-2.892-3.925-9.718-2.466-9.718-2.466l-24.948,5.649c-5.128,3.803-6.096,11.345-6.096,11.345
				S330.946,169.953,332.392,172.501z"/>
			<path style="fill:#DADDE5;" d="M359.945,214.969c-0.429,8.102-0.53,18.866-0.482,29.4l43.238-20.982
				c-0.316-13.824-0.015-28.263,0.33-38.632l-25.534,7.361C377.497,192.115,369.726,210.749,359.945,214.969z"/>
			<path style="fill:#FFFFFF;" d="M362.027,180.048c-0.258,5.688-0.831,16.962-1.887,31.746c-0.072,1.003-0.137,2.065-0.195,3.176
				c9.781-4.22,17.552-22.854,17.552-22.854l25.534-7.361c0.294-8.846,0.619-14.732,0.619-14.732l-26.503-9.365
				c0,0-5.302,9.502-11.155,15.561C364.626,177.634,363.289,178.912,362.027,180.048z"/>
			<path style="fill:#FFD150;" d="M346.574,174.154c0,0-5.644,11.776-6.333,11.706l2.616,4.957l8.813-0.826l2.341-4.131
				C353.255,185.79,346.574,174.154,346.574,174.154z"/>
			<path style="fill:#FFD150;" d="M342.365,192.469c-1.867,6.421-8.42,30.509-7.77,50.354l19.692-2.899
				c0,0-1.79-25.559-1.928-36.025c-0.075-5.711-0.273-9.319-0.438-11.429c-0.005,0.005-2.457,2.341-4.864,2.616
				C344.65,195.361,342.368,192.473,342.365,192.469z"/>
			<path style="fill:#FFA440;" d="M342.365,192.469c0.003,0.004,2.284,2.891,4.693,2.616c2.408-0.275,4.859-2.611,4.864-2.616
				c-0.137-1.757-0.251-2.479-0.251-2.479l-8.813,0.826C342.858,190.816,342.673,191.412,342.365,192.469z"/>
			<path style="fill:#FFFFFF;" d="M318.621,195.104c0,0-1.962,15.749-3.305,24.218c-0.593,3.74-2.113,11.69-3.625,19.402
				l14.699-4.627c0.29-2.444,0.59-4.777,0.907-6.926c1.834-12.454,6.267-36.773,8.45-48.59c-1.411-2.539-2.753-5.02-3.355-6.081
				c-1.446-2.548,0-8.676,0-8.676s-18.728,5.405-22.653,16.938c-2.019,5.933-4.639,17.857-6.707,28.039
				C310.153,207.592,318.621,195.104,318.621,195.104z"/>
			<path style="fill:#FFFFFF;" d="M359.913,273.784c0.126,5.126,0.228,8.333,0.228,8.333c0.448,18.6,6.197,62.589,6.197,62.589
				c39.247,3.202,56.943-16.319,56.943-16.319c-2.651-16.318-12.325-47.923-17.696-72.091c-0.849-3.819-1.477-8.587-1.934-13.906
				c-3.712,8.647-8.187,18.635-10.253,21.549C390.427,268.13,369.412,272.156,359.913,273.784z"/>
			<path style="fill:#12AAB5;" d="M355.269,274.543c0,0,1.811-0.273,4.644-0.759c-0.176-7.192-0.398-18.169-0.45-29.416
				l-6.277,3.046l6.277-3.046c-0.048-10.533,0.053-21.298,0.482-29.4c-0.638,0.276-1.285,0.491-1.939,0.635
				c0.654-0.143,1.301-0.359,1.939-0.635c0.059-1.111,0.124-2.172,0.195-3.176c1.056-14.784,1.628-26.058,1.887-31.746
				c-4.14,3.727-7.434,5.864-8.014,5.811l-2.341,4.131l2.616,1.79l-2.616-1.79c0,0,0.114,0.722,0.251,2.479l0,0l2.365,1.317
				l-2.365-1.317l0,0c0.165,2.11,0.363,5.718,0.438,11.429c0.138,10.466,1.928,36.025,1.928,36.025l-19.692,2.899
				c-0.65-19.845,5.902-43.933,7.77-50.354l0,0l-2.537,2.617l2.537-2.617l0,0c0.308-1.057,0.493-1.653,0.493-1.653l-3.03,1.652
				l3.03-1.652l-2.616-4.957c-0.402-0.041-2.516-3.717-4.495-7.278c-2.183,11.816-6.616,36.136-8.45,48.59
				c-0.316,2.149-0.617,4.482-0.907,6.926l2.972-0.936l-2.972,0.936c-1.982,16.699-3.492,38.663-6.495,43.889
				c0,0,4.407,4.544,6.576,5.164c2.169,0.62,33.67-1.033,33.67-1.033s-0.102-3.206-0.228-8.333
				C357.081,274.27,355.269,274.543,355.269,274.543z"/>
			<path style="fill:#DADDE5;" d="M311.692,238.724c-1.322,6.742-2.635,13.287-3.321,16.694c1.694-0.425,2.715-0.757,2.715-0.757
				l-10.228,36.958l15.079-6.197l3.959-7.436c3.003-5.225,4.513-27.19,6.495-43.889L311.692,238.724z"/>
			<path style="fill:#DADDE5;" d="M307.88,239.924l3.812-1.2c1.512-7.712,3.032-15.662,3.625-19.402
				c1.343-8.469,3.305-24.218,3.305-24.218s-8.468,12.489-15.59,13.699c-1.953,9.612-3.414,17.672-3.414,17.672l-10.328-32.689
				c-7.746-0.955-17.919,11.49-17.919,11.49s0.671,6.92,1.807,14.459c1.136,7.54,4.992,35.012,15.286,36.975
				c7.337,1.399,15.704-0.237,19.907-1.292c0.686-3.407,2-9.952,3.321-16.694L307.88,239.924z"/>
			<path style="fill:#B1B7C4;" d="M359.463,244.368c0.052,11.247,0.274,22.224,0.45,29.416c9.499-1.629,30.514-5.655,33.484-9.845
				c2.066-2.914,6.542-12.902,10.253-21.549c-0.502-5.843-0.797-12.351-0.949-19.004L359.463,244.368z"/>
		</g>
		<g>
			<path style="fill:#E5906E;" d="M266.397,252.977c-0.855,1.481-0.139,2.115-0.139,2.115l9.571-4.338
				C275.828,250.754,270.005,252.998,266.397,252.977z"/>
			<path style="fill:#FFCCB3;" d="M318.518,248.688c0,0-16.663-4.958-19.142-5.646c-2.479-0.689-12.945,0.413-16.938,0.995
				c-3.993,0.582-9.674,3.032-13.685,6.372c-1.254,1.044-1.968,1.893-2.357,2.567c3.609,0.021,9.432-2.223,9.432-2.223l-9.571,4.338
				c0,0-1.377,0.688-1.721,2.961c-0.054,0.355-0.031,0.665,0.035,0.943c4.506-1.01,13.598-4.248,13.598-4.248l-11.43,6.197
				c0,0-2.72,1.446-1.171,3.512c1.549,2.066,5.784,0.551,5.784,0.551l10.397-5.715c0,0-5.178,3.82-7.916,7.103
				c4.683,0.819,12.804-3.434,12.804-3.434s2.341,1.461,5.99,1.909c3.649,0.448,10.776-3.443,13.909-3.787
				c3.133-0.344,13.358,0.757,13.358,0.757L318.518,248.688z"/>
			<path style="fill:#E5906E;" d="M264.572,258.995c0.359,1.503,2.168,1.949,2.168,1.949l11.43-6.197
				C278.169,254.748,269.077,257.986,264.572,258.995z"/>
			<path style="fill:#E5906E;" d="M281.75,259.292l-10.397,5.715c0.574,0.78,1.445,1.206,2.481,1.388
				C276.572,263.112,281.75,259.292,281.75,259.292z"/>
		</g>
		<g>
			<path style="fill:#E5906E;" d="M347.127,152.533c3.958-0.952,8.167-8.718,11.141-15.476c-0.244-0.498-0.478-0.987-0.701-1.462
				c-3.665-7.81-4.932-12.807-4.932-12.807l-20.243,15.01c0,0,4.38,9.243,6.097,14.686
				C341.224,152.993,344.323,153.207,347.127,152.533z"/>
			<path style="fill:#FFCCB3;" d="M358.269,137.057c-2.975,6.758-7.183,14.525-11.141,15.476c-2.804,0.674-5.903,0.46-8.638-0.049
				c0.336,1.066,0.572,1.989,0.651,2.665c0.482,4.131,0,7.574,0,7.574l7.987,9.089c0,0,12.463-9.158,15.836-12.256
				c3.374-3.098,5.044-4.751,5.044-4.751S362.032,144.75,358.269,137.057z"/>
		</g>
		<g>
			<path style="fill:#DADDE5;" d="M379.902,251.546c-10.947,5.731-54.135,11.461-68.309,13.222c0.459,3.105,1.271,6.083,2.622,8.536
				c0,0,57.287-9.296,66.789-12.359c9.502-3.064,11.223-7.608,14.184-11.74c1.884-2.629,12.379-23.57,17.62-42.661
				C404.118,221.831,388.909,246.83,379.902,251.546z"/>
			<path style="fill:#FFFFFF;" d="M414.054,179.386c-8.331-16.318-23.755-9.433-31.122,1.377
				c-7.367,10.81-17.351,49.851-17.351,49.851s-50.961,11.315-53.293,13.424c-0.076,0.068-2.128,11.022-0.694,20.73
				c14.175-1.761,57.363-7.491,68.309-13.222c9.008-4.716,24.216-29.715,32.906-45.002
				C415.804,195.631,417.084,185.322,414.054,179.386z"/>
		</g>
		<g>
			<g>
				<path style="fill:#C16240;" d="M307.845,78.652c23.377-1.084,32.362-14.459,32.362-14.459s2.963,10.328,13.695,8.676
					c5.68-0.875,9.298-5.25,11.447-9.176c-3.431-5.07-8.926-5.18-8.926-5.18s5.164-2.169,2.582-4.338
					c-2.582-2.169-5.103,2.892-5.103,2.892s0.868-6.145-1.817-6.25c-2.685-0.104-0.97,5.836-0.97,5.836
					c-1.745-2.582-13.541-11.206-28.155-10.225c-14.614,0.981-31.088,8.314-32.637,21.454c-0.169,1.43-0.163,2.742-0.033,3.957
					C292.557,75.751,297.473,79.134,307.845,78.652z M311.598,52.419c10.225-4.131,28.712,1.033,28.712,1.033
					s-18.487,0.206-27.37,6.945c-8.882,6.74-12.187,12.42-15.699,9.58C295.05,68.204,301.373,56.55,311.598,52.419z"/>
				<path style="fill:#893820;" d="M368.008,72.765c-0.19-4.085-1.252-6.993-2.659-9.073c-2.148,3.926-5.767,8.301-11.447,9.176
					c-10.732,1.653-13.695-8.676-13.695-8.676s-8.986,13.375-32.362,14.459c-10.372,0.481-15.288-2.902-17.556-6.813
					c1.064,9.943,10.981,12.907,10.981,12.907l57.08,17.455C358.35,102.201,368.661,86.812,368.008,72.765z"/>
				<path style="fill:#E5906E;" d="M312.941,60.397c8.882-6.74,27.37-6.945,27.37-6.945s-18.487-5.164-28.712-1.033
					c-10.225,4.131-16.548,15.785-14.356,17.558C300.754,72.817,304.059,67.136,312.941,60.397z"/>
			</g>
			<g>
				<g>
					<path style="fill:#FFCCB3;" d="M314.449,116.039c-0.666-6.382,1.452-11.522,1.762-11.429c0.344,0.103,0.138,2.789,0.551,5.302
						c0.241,1.465,0.598,3.16,0.854,4.323c7.674-2.115,25.792,0.29,25.792,0.29l6.661-19.849c-1.524-0.852-3.374-2.274-5.215-4.663
						c-4.338-5.629-5.577-14.253-5.577-14.253s-18.384,13.014-38.008,8.986c0,0-0.962,20.506,2.376,31.501
						c1.003,3.306,2.473,6.454,4.199,9.36C309.963,121.668,312.268,118.069,314.449,116.039z"/>
					<path style="fill:#E5906E;" d="M316.211,104.61c-0.31-0.093-2.428,5.046-1.762,11.429c0.768-0.714,1.521-1.244,2.244-1.514
						c0.285-0.106,0.599-0.201,0.923-0.29c-0.257-1.162-0.614-2.857-0.854-4.323C316.349,107.399,316.556,104.714,316.211,104.61z"
						/>
					<path style="fill:#12AAB5;" d="M343.271,118.244c-2.548-1.446-19.417-2.617-24.65,0c-2.449,1.224-5.711,6.067-8.49,10.874
						c3.643,5.12,7.931,9.208,11.485,11.607c6.197,4.183,9.233,4.234,15.048,3.098c4.762-0.93,10.035-5.61,14.45-11.766
						C348.954,127.337,345.061,119.259,343.271,118.244z"/>
					<path style="fill:#FFCCB3;" d="M362,87.535c-5.267-0.826-7.608,5.956-8.4,8.4l-6.472,20.755
						c1.909,1.711,4.855,7.238,6.775,11.095c0,0,0,0,0,0c4.844-8.181,5.413-11.641,5.516-13.913c0.103-2.272-0.62-6.507-0.62-6.507
						s3.615,2.962,7.436-2.986C370.056,98.431,367.267,88.361,362,87.535z"/>
					<path style="fill:#C2F2F1;" d="M347.127,116.69l6.472-20.755c0,0-1.463-0.103-3.529-1.259l-6.661,19.849
						c0,0-18.118-2.405-25.792-0.29c0.184,0.831,0.316,1.392,0.316,1.392s-0.133-0.561-0.316-1.392
						c-0.325,0.09-0.638,0.184-0.923,0.29c-0.723,0.269-1.476,0.8-2.244,1.514c0.073,0.7,0.17,1.411,0.316,2.135
						c-0.146-0.725-0.243-1.435-0.316-2.135c-2.182,2.03-4.486,5.628-6.604,9.568c0.722,1.216,1.488,2.387,2.286,3.51
						c2.779-4.807,6.042-9.649,8.49-10.874c5.233-2.617,22.102-1.446,24.65,0c1.79,1.016,5.683,9.093,7.843,13.813
						c0.976-1.361,1.911-2.791,2.788-4.272C351.982,123.928,349.036,118.401,347.127,116.69z"/>
				</g>
				<g>
					<path style="fill:#E5906E;" d="M358.35,102.201c-0.693,0,0.172-10.259,1.652-9.777c1.48,0.482,0.344,6.335,0.344,6.335
						s2.651-1.343,2.961,0C363.618,100.101,359.486,102.201,358.35,102.201z"/>
					<path d="M331.635,100.41c-2.39,0.553-3.856,1.859-4.407,1.79c-0.551-0.069-1.343-1.962-0.826-2.479
						c0.516-0.516,4.751-3.374,8.125-1.721c3.374,1.652,3.615,3.856,3.167,3.856C337.247,101.856,334.905,99.653,331.635,100.41z"/>
					<path style="fill:#C16240;" d="M329.5,87.328c-0.537-0.386-0.62-3.271,0-3.512c0.62-0.241,7.333,0.379,7.161,2.961
						C336.489,89.359,330.602,88.12,329.5,87.328z"/>
					<path d="M309.913,104.731c1.774,0.261,3.024,1.373,3.401,1.24c0.376-0.134,0.617-2.095,0.167-2.543
						c-0.45-0.447-3.907-2.76-6.006-0.728c-2.098,2.032-1.9,4.233-1.585,4.179C306.205,106.826,307.485,104.374,309.913,104.731z"/>
					<path style="fill:#C16240;" d="M310.991,91.285c0.221-0.497-0.752-3.214-1.251-3.281c-0.499-0.068-4.756,2.219-3.721,4.588
						C307.053,94.96,310.538,92.305,310.991,91.285z"/>
				</g>
			</g>
		</g>
	</g>
</g>
</svg>
