<?xml version="1.0" encoding="utf-8"?>
<!-- Generator: Adobe Illustrator 27.5.0, SVG Export Plug-In . SVG Version: 6.00 Build 0)  -->
<svg version="1.1" xmlns="http://www.w3.org/2000/svg" xmlns:xlink="http://www.w3.org/1999/xlink" x="0px" y="0px"
	 viewBox="0 0 500 500" style="enable-background:new 0 0 500 500;" xml:space="preserve">
<g id="Background_complete">
	<g>
		<rect x="279.809" y="75.771" style="fill:#E6E6E6;" width="147.21" height="162.895"/>
		<rect x="286.286" y="82.224" style="fill:#F5F5F5;" width="134.64" height="150.326"/>
		<polygon style="fill:#FFFFFF;" points="324.338,82.224 286.286,224.732 286.286,147.583 303.698,82.224 		"/>
		<polygon style="fill:#FFFFFF;" points="341.345,82.224 301.214,232.55 293.645,232.55 333.776,82.224 		"/>
		<polygon style="fill:#FFFFFF;" points="420.926,123.217 420.926,200.38 412.403,232.55 391.762,232.55 		"/>
		<rect x="350.799" y="75.771" style="fill:#E6E6E6;" width="5.229" height="162.895"/>
		<rect x="282.364" y="108.824" style="fill:#E6E6E6;" width="141.83" height="5.229"/>
	</g>
	<g>
		<g>
			<g>
				<g>
					<g>
						<path style="fill:#E0E0E0;" d="M443.92,330.198H263.174c-3.232,0-5.862-2.63-5.862-5.862V61.062
							c0-3.232,2.63-5.862,5.862-5.862H443.92c3.232,0,5.862,2.629,5.862,5.862v263.273
							C449.783,327.568,447.153,330.198,443.92,330.198z M263.174,55.45c-3.095,0-5.612,2.518-5.612,5.612v263.273
							c0,3.095,2.518,5.612,5.612,5.612H443.92c3.095,0,5.612-2.518,5.612-5.612V61.062c0-3.094-2.518-5.612-5.612-5.612H263.174z"
							/>
					</g>
				</g>
				<g>
					<g>
						<path style="fill:#E0E0E0;" d="M235.493,330.198H54.746c-3.232,0-5.862-2.63-5.862-5.862V61.062
							c0-3.232,2.629-5.862,5.862-5.862h180.747c3.232,0,5.862,2.629,5.862,5.862v263.273
							C241.355,327.568,238.725,330.198,235.493,330.198z M54.746,55.45c-3.094,0-5.612,2.518-5.612,5.612v263.273
							c0,3.095,2.518,5.612,5.612,5.612h180.747c3.095,0,5.612-2.518,5.612-5.612V61.062c0-3.094-2.518-5.612-5.612-5.612H54.746z"
							/>
					</g>
				</g>
			</g>
			<g>
				<g>
					<rect x="0" y="391.267" style="fill:#E0E0E0;" width="500" height="0.25"/>
				</g>
			</g>
		</g>
		<rect x="51.672" y="405.531" style="fill:#E0E0E0;" width="16.06" height="0.25"/>
		<rect x="170.352" y="402.821" style="fill:#E0E0E0;" width="53.53" height="0.25"/>
		<rect x="68.732" y="414.821" style="fill:#E0E0E0;" width="36.25" height="0.25"/>
		<rect x="378.352" y="402.691" style="fill:#E0E0E0;" width="43.19" height="0.25"/>
		<rect x="430.452" y="402.691" style="fill:#E0E0E0;" width="6.33" height="0.25"/>
		<rect x="316.212" y="408.921" style="fill:#E0E0E0;" width="53.89" height="0.25"/>
	</g>
	<g id="freepik--Shelf--inject-343">
		<rect x="131.404" y="116.745" style="fill:#E0E0E0;" width="6.823" height="274.772"/>
		<polygon style="fill:#E6E6E6;" points="170.446,391.517 163.61,391.517 136.892,116.745 143.729,116.745 		"/>
		<rect x="93.685" y="306.758" style="fill:#E0E0E0;" width="19.694" height="19.694"/>
		<polygon style="fill:#E0E0E0;" points="125.97,256.968 132.887,233.989 136.518,234.911 129.161,258.157 		"/>
		<polygon style="fill:#E0E0E0;" points="110.655,244.017 100.735,246.407 97.838,256.181 104.861,263.578 114.781,261.201 
			117.679,251.427 		"/>
		<path style="fill:#E0E0E0;" d="M122.285,257.235L122.285,257.235c-1.317-0.007-2.383-1.073-2.39-2.39v-4.473
			c0.007-1.315,1.075-2.377,2.39-2.377l0,0c1.313,0,2.377,1.064,2.377,2.377v4.473C124.662,256.16,123.6,257.228,122.285,257.235z"
			/>
		<rect x="91.669" y="253.804" style="fill:#E6E6E6;" width="41.218" height="18.666"/>
		<g>
			<polygon style="fill:#E0E0E0;" points="122.378,95.822 116.57,113.073 127.305,113.073 			"/>
			<polygon style="fill:#E6E6E6;" points="142.634,113.073 122.378,113.073 116.57,84.9 136.812,84.9 			"/>
			<polygon style="fill:#FFFFFF;enable-background:new    ;" points="124.501,110.376 119.802,87.598 134.702,87.598 
				139.402,110.376 			"/>
		</g>
		<g>
			<polygon style="fill:#E0E0E0;" points="106.644,199.654 100.835,216.905 111.57,216.905 			"/>
			<polygon style="fill:#E6E6E6;" points="126.899,216.905 106.644,216.905 100.835,188.732 121.077,188.732 			"/>
			<polygon style="fill:#FFFFFF;enable-background:new    ;" points="108.767,214.208 104.067,191.429 118.967,191.429 
				123.667,214.208 			"/>
		</g>
		<rect x="73.35" y="161.555" style="fill:#E0E0E0;" width="93.077" height="5.982"/>
		<rect x="103.005" y="161.555" style="fill:#F0F0F0;enable-background:new    ;" width="63.436" height="5.982"/>
		<rect x="73.35" y="216.512" style="fill:#E0E0E0;" width="93.077" height="5.982"/>
		<rect x="103.005" y="216.512" style="fill:#F0F0F0;enable-background:new    ;" width="63.436" height="5.982"/>
		<rect x="73.35" y="271.482" style="fill:#E0E0E0;" width="93.077" height="5.982"/>
		<rect x="103.005" y="271.482" style="fill:#F0F0F0;enable-background:new    ;" width="63.436" height="5.982"/>
		<rect x="73.35" y="326.439" style="fill:#E0E0E0;" width="93.077" height="5.982"/>
		<rect x="103.005" y="326.439" style="fill:#F0F0F0;enable-background:new    ;" width="63.436" height="5.982"/>
		<rect x="73.35" y="116.745" style="fill:#E0E0E0;" width="6.823" height="274.772"/>
		<polygon style="fill:#E6E6E6;" points="112.405,391.517 105.568,391.517 78.851,116.745 85.687,116.745 		"/>
		<rect x="73.35" y="112.125" style="fill:#E0E0E0;" width="93.077" height="5.982"/>
		<rect x="103.005" y="112.125" style="fill:#F0F0F0;enable-background:new    ;" width="63.436" height="5.982"/>
		<path style="fill:#E0E0E0;" d="M92.983,102.632c-1.083-2.628-0.986-5.594,0.267-8.145c2.15-4.006,2.777-4.994,1.335-5.821
			c-1.442-0.828-1.99,3.231-1.99,3.231c-0.683-1.833-0.754-3.838-0.2-5.715c0.948-2.924,1.549-7.691,0.24-8.198
			s-0.24,5.942-1.335,8.145c-0.575-1.548-0.947-3.163-1.108-4.807c-0.147-2.35,0.093-6.089-0.935-7.05
			c-1.028-0.961-1.682-0.307-0.681,4.873c0.606,3.08,0.941,6.208,1.001,9.346c0,0-2.23-6.796-3.725-6.996
			c-1.495-0.2-1.495,2.003-0.214,3.912c1.282,1.909,3.752,5.341,4.166,7.09c0,0-2.457-5.114-4.646-3.538
			c-2.19,1.576,1.909,4.646,3.739,5.768c1.829,1.122,3.111,8.118,3.111,8.118L92.983,102.632z"/>
		<path style="fill:#EBEBEB;" d="M91.501,104.248c1.048-2.637,0.917-5.597-0.36-8.131c-2.203-4.006-2.831-4.954-1.469-5.795
			c1.362-0.841,2.03,3.204,2.03,3.204c0.657-1.846,0.704-3.854,0.134-5.728c-0.988-2.911-1.642-7.664-0.347-8.185
			c1.295-0.521,0.32,5.928,1.469,8.118c0.558-1.555,0.912-3.175,1.055-4.82c0.12-2.35-0.16-6.089,0.855-7.063
			c1.015-0.975,1.682-0.334,0.734,4.873c-0.567,3.084-0.866,6.211-0.895,9.346c0,0,2.15-6.823,3.645-7.05
			c1.495-0.227,1.522,1.99,0.254,3.912c-1.269,1.923-3.685,5.341-4.006,7.157c0,0,2.377-5.154,4.593-3.618
			c2.216,1.535-1.856,4.687-3.672,5.822c-1.816,1.135-3.017,8.171-3.017,8.171L91.501,104.248z"/>
		<polygon style="fill:#E0E0E0;" points="99.94,101.31 84.825,101.31 86.053,112.125 98.725,112.125 		"/>
		<path style="fill:#E0E0E0;" d="M126.638,156.748v4.139h0.668v0.668H96.369c-1.512,0-2.737-1.225-2.737-2.737
			s1.226-2.737,2.737-2.737l0,0h30.937v0.668H126.638z"/>
		<path style="opacity:0.3;fill:#FFFFFF;enable-background:new    ;" d="M126.638,156.748v4.139h0.668v0.668h-15.622
			c-1.512,0-2.737-1.225-2.737-2.737s1.225-2.737,2.737-2.737l0,0h15.622v0.668H126.638z"/>
		<path style="fill:#FFFFFF;enable-background:new    ;" d="M126.638,156.748v4.139h-14.954c-1.15,0.022-2.1-0.892-2.123-2.042
			c0-0.009,0-0.018,0-0.027c-0.007-1.136,0.907-2.062,2.043-2.07c0.009,0,0.018,0,0.027,0H126.638z"/>
		<path style="fill:#E0E0E0;" d="M129.962,151.273v4.139h0.668v0.668H99.693c-1.512,0-2.737-1.225-2.737-2.737
			c0-1.512,1.226-2.737,2.737-2.737h30.937v0.668H129.962z"/>
		<path style="fill:#E6E6E6;enable-background:new    ;" d="M129.962,151.273v4.139h0.668v0.668h-15.622
			c-1.512,0-2.737-1.225-2.737-2.737c0-1.512,1.225-2.737,2.737-2.737h15.622v0.668H129.962z"/>
		<path style="fill:#FFFFFF;enable-background:new    ;" d="M129.962,151.273v4.139h-14.954c-1.14-0.007-2.062-0.93-2.07-2.07
			c-0.007-1.136,0.907-2.062,2.043-2.07c0.009,0,0.018,0,0.027,0H129.962z"/>
		<path style="fill:#E0E0E0;" d="M125.783,145.799v4.139h0.668v0.668H95.514c-1.512,0-2.737-1.225-2.737-2.737
			s1.225-2.737,2.737-2.737h30.937v0.668H125.783z"/>
		<path style="fill:#E6E6E6;enable-background:new    ;" d="M125.783,145.799v4.139h0.668v0.668h-15.555
			c-1.512,0-2.737-1.225-2.737-2.737s1.225-2.737,2.737-2.737l0,0h15.622v0.668H125.783z"/>
		<path style="fill:#FFFFFF;enable-background:new    ;" d="M125.783,145.799v4.139h-14.887c-1.15,0.03-2.106-0.879-2.136-2.029
			c0-0.009,0-0.018-0.001-0.028c-0.016-1.135,0.892-2.069,2.028-2.084c0.036-0.001,0.072,0,0.109,0.001H125.783z"/>
		<path style="fill:#E6E6E6;" d="M131.365,298.173L131.365,298.173c3.746,0,6.783,3.037,6.783,6.783v10.001
			c0,3.746-3.037,6.783-6.783,6.783l0,0c-3.746,0-6.783-3.037-6.783-6.783v-10.001C124.582,301.21,127.618,298.173,131.365,298.173z
			"/>
		<rect x="129.709" y="315.651" style="fill:#E6E6E6;" width="3.285" height="10.802"/>
		<rect x="126.224" y="325.424" style="fill:#E6E6E6;" width="10.268" height="1.015"/>
	</g>
	<g>
		<g>
			<g>
				<path style="fill:#E0E0E0;" d="M403.569,366.06c-0.016-0.505-1.716-50.688-9.879-58.625c-7.939-7.718-17.051-0.287-17.434,0.032
					l-0.819-0.981c0.103-0.087,10.386-8.481,19.143,0.033c8.529,8.294,10.198,57.414,10.264,59.501L403.569,366.06z"/>
			</g>
			<g>
				<path style="fill:#E0E0E0;" d="M404.27,375.922c-0.059-0.6-5.579-60.244,16.203-85.242l0.963,0.838
					c-21.421,24.584-15.952,83.686-15.895,84.279L404.27,375.922z"/>
			</g>
			<g>
				<path style="fill:#E0E0E0;" d="M403.464,369.613l-1.275-0.085c0.045-0.676,4.263-67.807-11.714-82.503l0.865-0.941
					C407.765,301.193,403.648,366.826,403.464,369.613z"/>
			</g>
			<g>
				<path style="fill:#E0E0E0;" d="M405.544,369.576l-1.278-0.01c0.016-1.849,0.527-45.344,12.882-52.424
					c2.746-1.576,5.436-1.838,7.994-0.78c7.471,3.09,11.173,16.386,11.327,16.95l-1.233,0.337
					c-0.036-0.133-3.692-13.257-10.584-16.107c-2.173-0.897-4.483-0.66-6.869,0.707C406.06,324.968,405.548,369.13,405.544,369.576z
					"/>
			</g>
			<g>
				<path style="fill:#E0E0E0;" d="M400.733,369.607l-1.275-0.072c0.019-0.343,1.864-34.372-7.32-46.361
					c-2.225-2.904-4.641-4.289-7.193-4.111c-6.017,0.421-11.063,9.226-11.113,9.315l-1.113-0.629
					c0.219-0.387,5.432-9.49,12.135-9.96c2.999-0.213,5.794,1.34,8.298,4.609C402.624,334.763,400.815,368.191,400.733,369.607z"/>
			</g>
			<g>
				<path style="fill:#E0E0E0;" d="M402.746,374.236c-0.25-3.301-6.003-80.999,4.12-94.691l1.027,0.759
					c-9.843,13.313-3.933,93.031-3.873,93.835L402.746,374.236z"/>
			</g>
		</g>
		<g>
			<path style="fill:#EBEBEB;" d="M427.896,324.236c0,0-6.073,2.239-4.267,7.524c1.805,5.286,21.009,13.984,21.009,13.984
				s8.043-7.371,0.656-19.36C437.908,314.396,428.06,320.454,427.896,324.236z"/>
		</g>
		<g>
			<path style="fill:#EBEBEB;" d="M401.495,314.175c0,0,6.467-0.271,6.834,5.303c0.367,5.573-14.009,20.992-14.009,20.992
				s-10.26-3.709-8.056-17.617C388.468,308.945,399.888,310.746,401.495,314.175z"/>
		</g>
		<g>
			<path style="fill:#EBEBEB;" d="M396.02,287.496c0,0,4.312-0.463,3.964-3.089c-0.347-2.626-16.76-9.385-26.444,1.544
				c0,0,6.201,10.651,15.164,10.79C397.668,296.881,396.02,287.496,396.02,287.496z"/>
		</g>
		<g>
			<path style="fill:#EBEBEB;" d="M404.055,281.119c0,0-3.904,1.888-4.998-0.525c-1.094-2.412,9.26-16.829,23.26-12.675
				c0,0,0.371,12.319-7.163,17.178C407.62,289.955,404.055,281.119,404.055,281.119z"/>
		</g>
		<g>
			<path style="fill:#EBEBEB;" d="M383.641,322.112c0,0,2.976-2.402-0.236-3.575c-3.211-1.173-18.968-0.84-19.132,14.769
				c0,0,18.351,3.05,20.623-2.896C387.168,324.464,383.641,322.112,383.641,322.112z"/>
		</g>
		<g>
			<path style="fill:#EBEBEB;" d="M421.063,287.105c0,0-2.975-2.403,0.236-3.575c3.211-1.173,18.968-0.84,19.132,14.768
				c0,0-18.352,3.05-20.623-2.896C417.537,289.457,421.063,287.105,421.063,287.105z"/>
		</g>
		<g>
			<path style="fill:#EBEBEB;" d="M411.362,299.678c0,0-0.262-2.921,2.096-1.776c2.358,1.145,10.572,10.006,2.057,18.416
				c0,0-11.462-8.489-9.396-12.909C408.185,298.988,411.362,299.678,411.362,299.678z"/>
		</g>
		<g>
			<path style="fill:#EBEBEB;" d="M380.981,303.84c0,0,1.779-2.331-0.826-2.62c-2.605-0.289-14.28,2.827-11.561,14.482
				c0,0,14.223-1.069,14.832-5.91C384.036,304.95,380.981,303.84,380.981,303.84z"/>
		</g>
		<polygon style="fill:#F0F0F0;" points="417.5,392.089 388.813,392.089 381.182,356.892 424.406,356.892 		"/>
		<rect x="378.579" y="356.383" style="fill:#E6E6E6;" width="48.317" height="10.121"/>
	</g>
</g>
<g id="Background_simple" style="display:none;">
	<g style="display:inline;">
		<g>
			<path style="fill:#407BFF;" d="M136.314,95.998c23.771-18.634,34.146-27.977,63.685-34.285
				c29.538-6.308,61.548-8.666,104.115-2.372c0,0,48.858,10.899,79.971,35.272c23.503,18.411,33.132,38.096,35.147,65.751
				c0.78,10.694-0.104,21.877-5.253,31.282c-7.396,13.509-22.236,21.193-31.692,33.35c-9.556,12.286-12.912,28.128-19.106,42.407
				c-14.002,32.28-43.409,56.722-76.771,67.905c-33.362,11.183-70.227,9.767-103.865-0.557
				c-25.365-7.785-49.502-20.765-67.898-39.885c-18.396-19.12-30.684-44.702-31.179-71.231
				C83.469,223.635,70.121,147.888,136.314,95.998z"/>
		</g>
		<g style="opacity:0.9;">
			<path style="fill:#FFFFFF;" d="M136.314,95.998c23.771-18.634,34.146-27.977,63.685-34.285
				c29.538-6.308,61.548-8.666,104.115-2.372c0,0,48.858,10.899,79.971,35.272c23.503,18.411,33.132,38.096,35.147,65.751
				c0.78,10.694-0.104,21.877-5.253,31.282c-7.396,13.509-22.236,21.193-31.692,33.35c-9.556,12.286-12.912,28.128-19.106,42.407
				c-14.002,32.28-43.409,56.722-76.771,67.905c-33.362,11.183-70.227,9.767-103.865-0.557
				c-25.365-7.785-49.502-20.765-67.898-39.885c-18.396-19.12-30.684-44.702-31.179-71.231
				C83.469,223.635,70.121,147.888,136.314,95.998z"/>
		</g>
	</g>
</g>
<g id="Shadow">
	<g>
		<g>
			<path style="fill:#F5F5F5;" d="M458.875,458.955c0,3.387-93.517,6.132-208.875,6.132s-208.875-2.746-208.875-6.132
				c0-3.387,93.516-6.132,208.875-6.132S458.875,455.568,458.875,458.955z"/>
		</g>
	</g>
</g>
<g id="Characters">
	<g>
		<g>
			<g>
				<g>
					<path style="fill:#D89380;" d="M324.545,236.454l-8.937,103.007l-13.564,91.25l-10.537-1.591c0,0-3.561-38.164-0.985-68.188
						c0.588-6.919,3.403-14.672,3.418-20.201c0.037-4.845-1.421-8.089-2.488-19.231c-1.306-13.466-2.097-31.393,0.732-44.829
						c0,0-2.138-21.337,4.313-40.638L324.545,236.454z"/>
					<path style="fill:#D89380;" d="M349.897,335.233l-0.91,96.241l-0.34,10.051l-7.365-0.417l-2.861-17.536
						c0,0-8.45-33.352-10.248-63.426c-0.405-6.927,1.239-15.004,0.471-20.474c-0.669-4.801-2.565-7.804-5.25-18.632
						c-3.233-13.152-6.576-30.754-5.754-44.476c0,0-14.073-14.698-10.467-34.733l31.591-7.371L349.897,335.233z"/>
					<g>
						<path style="fill:#263238;" d="M363.216,450.826c-1.462-0.869-3.121-1.529-4.896-1.948l0,0c0,0-5.328-3.879-8.085-15.736
							l-6.933-1.278c-2.383-0.391-4.837,0.371-6.172,1.916c-0.185,0.218-0.33,0.454-0.432,0.701
							c-0.315,1.261-0.528,2.536-0.638,3.817c-0.285,4.356-0.23,8.721,0.165,13.072h1.296l0.309-8.211
							c0-2.789,3.024,0.452,3.888,3.428c0.864,2.976,2.654,6.232,10.718,6.232C361.714,452.851,365.623,452.54,363.216,450.826z"/>
						<path style="fill:#D89380;" d="M348.919,428.889c0,0,1.563,5.422,4.114,11.42c1.049,3.09,2.872,5.999,5.369,8.569
							c0,0-6.027,0.888-8.702-2.15c-2.674-3.038-6.46-13.508-12.569-12.885c0.459-0.777,1.039-1.509,1.728-2.181
							C339.847,430.556,348.919,428.889,348.919,428.889z"/>
					</g>
					<g>
						<path style="fill:#263238;" d="M310.544,453.575c-1.211-1.195-2.663-2.234-4.284-3.067l0,0c0,0-4.24-5.046-4.066-17.218
							l-6.422-2.906c-2.219-0.953-4.785-0.803-6.451,0.377c-0.232,0.167-0.43,0.361-0.588,0.577
							c-0.609,1.149-1.122,2.335-1.536,3.552c-1.323,4.16-2.319,8.41-2.982,12.729l1.258,0.311l2.273-7.896
							c0.67-2.707,2.827,1.165,2.95,4.262c0.124,3.096,1.078,6.687,8.906,8.626C308.599,455.181,312.468,455.818,310.544,453.575z"
							/>
						<path style="fill:#D89380;" d="M301.938,428.845c0,0,0.214,5.639,1.249,12.074c0.276,3.252,1.346,6.514,3.152,9.608
							c0,0-6.064-0.587-7.93-4.179c-1.866-3.592-3.024-14.665-9.104-15.528c0.632-0.644,1.371-1.215,2.202-1.702
							C292.731,428.283,301.938,428.845,301.938,428.845z"/>
					</g>
				</g>
			</g>
			<g>
				<g>
					<path style="fill:#263238;" d="M296.842,115.148c0.664-1.882-0.576-4.095-2.42-4.856c-1.844-0.761-4.045-0.245-5.642,0.95
						c-1.598,1.195-2.663,2.979-3.403,4.832c-2.523,6.316-1.439,13.935,2.744,19.297c2.023,2.593,4.872,4.729,8.139,5.103
						c3.267,0.374,6.882-1.419,7.886-4.551L296.842,115.148z"/>
				</g>
				<g>
					<g>
						<path style="fill:#263238;" d="M318.384,109.494c0,0,8.61,16.936,8.859,22.116c3.418,3.13,6.145-2.867,6.309-11.031
							c0.134-6.683-3.088-14.016-8.765-16.821C316.812,99.819,318.384,109.494,318.384,109.494z"/>
						<g>
							<g>
								<path style="fill:#D89380;" d="M315.42,157.212c-1.487-1.597-2.126-3.224-1.752-5.456c0.266-1.717,0.887-3.489,1.613-5.211
									l-2.212-2.586l-11.568-11.674c0.289,7.795,1.224,20.314-4.869,24.546c0,0-7.563,3.133-10.863,3.814
									c1.971,1.618,14.601,18.777,26.28,17.836c10.624-0.857,11.375-15.832,12.496-20.209
									C321.528,157.331,318.267,157.856,315.42,157.212z"/>
								<path style="opacity:0.2;" d="M313.69,152.107c-3.181-1.889-6.672-5.164-6.253-8.907c0.186-1.576,0.526-3.069,0.904-4.026
									l6.462,8.555C314.272,149.108,314.079,150.019,313.69,152.107z"/>
								<path style="fill:#D89380;" d="M298.792,119.76c1.089,11.885,1.298,16.926,7.432,23.158
									c9.225,9.374,23.419,6.221,25.862-5.56c2.199-10.604,0.049-28.259-11.619-33.254
									C308.972,99.183,297.703,107.874,298.792,119.76z"/>
								<path style="fill:#263238;" d="M314.739,124.514c-0.031,1.114,0.574,2.083,1.352,2.164c0.777,0.081,1.433-0.756,1.464-1.869
									c0.031-1.114-0.574-2.083-1.352-2.164C315.426,122.563,314.771,123.4,314.739,124.514z"/>
								<path style="fill:#263238;" d="M326.853,123.914c-0.091,1.076,0.458,2.052,1.227,2.179c0.769,0.127,1.467-0.642,1.559-1.718
									c0.091-1.076-0.457-2.051-1.227-2.179C327.643,122.069,326.945,122.838,326.853,123.914z"/>
								<path style="fill:#263238;" d="M311.719,120.576c0.151,0.015,0.305-0.03,0.421-0.14c1.814-1.713,3.882-1.138,3.906-1.132
									c0.306,0.086,0.614-0.09,0.681-0.402c0.066-0.312-0.131-0.637-0.442-0.728c-0.108-0.031-2.703-0.755-4.954,1.372
									c-0.224,0.212-0.225,0.583-0.002,0.829C311.437,120.494,311.577,120.562,311.719,120.576z"/>
								<path style="fill:#263238;" d="M330.202,118.814c0.139-0.04,0.26-0.13,0.33-0.262c0.146-0.272,0.025-0.618-0.268-0.773
									c-2.943-1.554-5.323-0.385-5.424-0.334c-0.283,0.143-0.377,0.484-0.21,0.763c0.166,0.278,0.53,0.387,0.812,0.246
									c0.092-0.047,1.953-0.927,4.293,0.309C329.887,118.843,330.055,118.857,330.202,118.814z"/>
								<path style="fill:#D89380;" d="M295.196,129.447c1.404,2.437,3.685,3.968,5.777,4.493c3.146,0.789,4.771-4.269,3.697-7.421
									c-0.967-2.837-4.058-4.715-7.12-4.097C294.533,123.031,293.591,126.66,295.196,129.447z"/>
								<path style="fill:#A24E3F;" d="M322.719,123.014c0,0,1.859,4.449,3.957,7.222c0.366,0.485,0.14,1.192-0.431,1.402
									c-1.468,0.54-3.185,0.051-3.185,0.051L322.719,123.014z"/>
							</g>
							<path style="fill:#263238;" d="M315.968,122.598l2.772-0.415C318.74,122.182,317.084,124.086,315.968,122.598z"/>
							<path style="fill:#263238;" d="M328.13,122.184l2.792-0.25C330.922,121.934,329.156,123.736,328.13,122.184z"/>
						</g>
						<g>
							<path style="fill:#263238;" d="M295.822,113.161c-1.695,2.268,1.266,9.142,1.266,9.142s5.754-1.487,5.754,7.101
								c2.088,0.424,4.735-7.499,4.684-15.56C307.271,109.281,298.814,109.158,295.822,113.161z"/>
							<path style="fill:#263238;" d="M329.624,107.776c-2.322-5.311-12.376-10.533-24.322-5.919
								c-10.792,4.153-14.422,19.513-6.763,20.374c7.66,0.861,16.989-6.327,16.989-6.327L329.624,107.776z"/>
						</g>
						
							<path style="opacity:0.2;fill:none;stroke:#000000;stroke-width:0.5;stroke-linecap:round;stroke-linejoin:round;stroke-miterlimit:10;" d="
							M299.711,125.459c-0.992-0.423-2.061,0.205-2.421,1.024c-0.436,0.992,0.032,3.348,3.088,4.193"/>
					</g>
					
						<path style="fill:none;stroke:#263238;stroke-width:0.5;stroke-linecap:round;stroke-linejoin:round;stroke-miterlimit:10;" d="
						M321.043,135.237c-2.171,0.053-4.321-1.221-5.318-3.15"/>
				</g>
				<circle style="fill:#407BFF;" cx="299.779" cy="133.918" r="1.633"/>
				<g>
					<g>
						<path style="fill:#263238;" d="M326.752,109.059c-2.728,3.451-6.551,5.634-10.391,7.64c-4.377,2.286-9.108,4.873-14.217,3.866
							c-0.471-0.093-0.673,0.63-0.199,0.723c5.057,0.997,9.709-1.303,14.077-3.568c4.132-2.143,8.323-4.415,11.26-8.13
							C327.578,109.215,327.051,108.681,326.752,109.059L326.752,109.059z"/>
					</g>
				</g>
			</g>
			<g>
				<g>
					<polygon style="fill:#407BFF;" points="325.815,157.917 325.815,157.917 325.815,157.917 					"/>
					<path style="fill:#407BFF;" d="M353.429,274.137c-3.717-30.312-18.214-53.559-21.126-58.061
						c-0.33-0.51-0.464-1.115-0.385-1.716l1.514-30.25l-2.482-25.969c-1.658-0.359-9.204-0.82-10.936-0.921
						c0,0-8.065,26.482-25.249,0.364l-9.919,2.768l-3.089,23.305c0.192,1.417,2.706,9.441,3.574,12.964l6.247,18.615
						c0.087,0.295,0.117,0.608,0.093,0.914c-0.441,5.636-3.278,14.525-4.31,18.31c-4.849,17.795-3.458,19.429-6.237,39.382
						c-5.227,37.529-8.182,62.229-16.422,83.905c-0.357,0.939-0.14,1.997,0.569,2.709c0.472,0.474,1.112,0.744,1.781,0.752
						l95.946,1.069c1.565,0.017,0,0,0,0L353.429,274.137z"/>
					<path style="opacity:0.3;fill:#FFFFFF;" d="M353.429,274.137c-3.717-30.312-18.214-53.559-21.126-58.061
						c-0.33-0.51-0.464-1.115-0.385-1.716l1.514-30.25l-2.482-25.969c-1.658-0.359-9.204-0.82-10.936-0.921
						c0,0-8.065,26.482-25.249,0.364l-9.919,2.768l-3.089,23.305c0.192,1.417,2.706,9.441,3.574,12.964l6.247,18.615
						c0.087,0.295,0.117,0.608,0.093,0.914c-0.441,5.636-3.278,14.525-4.31,18.31c-4.849,17.795-3.458,19.429-6.237,39.382
						c-5.227,37.529-8.182,62.229-16.422,83.905c-0.357,0.939-0.14,1.997,0.569,2.709c0.472,0.474,1.112,0.744,1.781,0.752
						l95.946,1.069c1.565,0.017,0,0,0,0L353.429,274.137z"/>
				</g>
				<g style="opacity:0.2;">
					<path d="M322.978,207.793c-5.419-5.905-15.985-8.511-22.853-5.459C307.945,202.302,315.167,204.51,322.978,207.793z"/>
				</g>
			</g>
			<path style="fill:#D89380;" d="M284.351,160.383c0,0-5.035,1.325-7.26,4.682s-10.417,46.239-9.466,51.897
				c0.952,5.658,19.44,21.271,19.44,21.271l5.349-7.319l-11.899-18.292l4.115-29.12L284.351,160.383z"/>
			<path style="fill:#D89380;" d="M344.055,178.48l-12.358,5.997l4.346,24.451l-22.44,25.982l3.848,9.709
				c0,0,30.442-26.281,32.501-31.637C352.011,207.627,345.567,182.213,344.055,178.48z"/>
			<g>
				<path style="fill:#407BFF;" d="M330.95,158.14c0,0,7.245,0.509,10.878,9.261c3.373,8.124,8.124,19.39,8.124,19.39l-18.055,5.092
					c0,0-2.981-23.427-2.743-23.505C329.391,168.299,330.95,158.14,330.95,158.14z"/>
				<path style="opacity:0.3;fill:#FFFFFF;" d="M330.95,158.14c0,0,7.245,0.509,10.878,9.261c3.373,8.124,8.124,19.39,8.124,19.39
					l-18.055,5.092c0,0-2.981-23.427-2.743-23.505C329.391,168.299,330.95,158.14,330.95,158.14z"/>
			</g>
			<path style="fill:#407BFF;" d="M283.862,198.354c-0.541,0.169-18.218-7.08-18.218-7.08s7.011-23.143,9.909-26.885
				c2.779-3.589,13.741-5.278,13.741-5.278l-2.004,26.596L283.862,198.354z"/>
			<path style="opacity:0.3;fill:#FFFFFF;" d="M283.862,198.354c-0.541,0.169-18.218-7.08-18.218-7.08s7.011-23.143,9.909-26.885
				c2.779-3.589,13.741-5.278,13.741-5.278l-2.004,26.596L283.862,198.354z"/>
			<path style="opacity:0.2;" d="M284.838,194.754c0,0-3.081-9.736-2.986-16.021c0,0-2.982,10.852,2.011,19.62L284.838,194.754z"/>
			<path style="opacity:0.2;" d="M333.059,191.555c0,0,0.637-4.022,0.373-7.446c-0.264-3.423-2.306-10.91-2.306-10.91
				s5.123,8.739,4.868,17.528L333.059,191.555z"/>
			<path style="opacity:0.2;" d="M336.043,208.928c0,0,2.954,0.015,4.513,1.694c0,0-0.948-2.996-4.733-2.934L336.043,208.928z"/>
		</g>
		<g>
			<g>
				<g>
					<g>
						<polygon style="fill:#263238;" points="195.858,416.7 192.849,442.317 202.04,443.588 211.704,419.514 						"/>
					</g>
				</g>
			</g>
			<path style="fill:#407BFF;" d="M209.337,437.318c0.145-1.564,0.033-2.867-1.796-2.962l-2.59-0.134
				c-0.979,0-1.679,0.599-2.464,1.1c-5.937,3.788-8.373-1.103-10.677-1.1c-2.96-0.003-1.056,8.678-1.196,9.134l-3.235,10.073
				c-0.281,0.841,0.288,2.657,1.27,2.898c0.175,0.043,0.356,0.063,0.538,0.061c5.255,0,7.742,0,14.283,0h20.004
				c5.453,0,5.516-6.125,3.27-6.56c-10.101-1.911-14.086-4.942-17.414-7.159C209.33,442.669,209.114,439.721,209.337,437.318z"/>
			<path style="opacity:0.4;fill:#FFFFFF;" d="M223.474,456.388H203.47c-6.541,0-9.027,0-14.283,0
				c-0.182,0.002-0.363-0.018-0.538-0.061c-0.667-0.163-1.135-1.051-1.285-1.869l0.014-0.767h40.473
				C227.313,455.116,225.958,456.388,223.474,456.388z"/>
			<g>
				<g>
					<path style="fill:#263238;" d="M214.105,445.797c-0.863,0.729-1.594,1.619-2.131,2.613c-0.096,0.178-0.044,0.408,0.135,0.513
						c0.171,0.1,0.417,0.044,0.513-0.134c0.515-0.954,1.181-1.758,2.014-2.462c0.155-0.131,0.135-0.396,0-0.53
						C214.482,445.644,214.26,445.666,214.105,445.797L214.105,445.797z"/>
				</g>
			</g>
			<g>
				<g>
					<path style="fill:#263238;" d="M210.953,444.042c-0.795,0.696-1.481,1.518-2.019,2.427c-0.1,0.169-0.044,0.419,0.135,0.513
						c0.18,0.095,0.406,0.046,0.513-0.134c0.513-0.868,1.131-1.601,1.901-2.276c0.148-0.13,0.143-0.399,0-0.53
						C211.325,443.897,211.111,443.904,210.953,444.042L210.953,444.042z"/>
				</g>
			</g>
			<g>
				<g>
					<path style="fill:#263238;" d="M208.789,442.457c-0.788,0.396-1.467,1.038-1.876,1.823c-0.09,0.174-0.05,0.415,0.135,0.513
						c0.172,0.091,0.416,0.051,0.513-0.134c0.091-0.175,0.195-0.342,0.313-0.5c0.012-0.016,0.055-0.09,0.007-0.01
						c0.011-0.019,0.029-0.036,0.042-0.053c0.032-0.039,0.064-0.077,0.097-0.114c0.066-0.075,0.136-0.147,0.208-0.217
						c0.072-0.07,0.147-0.137,0.225-0.202c0.018-0.015,0.035-0.029,0.053-0.044c0.011-0.009,0.022-0.017,0.032-0.026
						c-0.011,0.008-0.021,0.017-0.032,0.025c0.018-0.035,0.102-0.076,0.134-0.098c0.168-0.118,0.344-0.222,0.528-0.314
						c0.176-0.088,0.239-0.35,0.135-0.513C209.186,442.412,208.977,442.362,208.789,442.457L208.789,442.457z"/>
				</g>
			</g>
			<g>
				<g>
					<path style="fill:#263238;" d="M208.976,439.206c-0.947,0.011-1.894,0.183-2.78,0.52c-0.189,0.072-0.319,0.253-0.262,0.461
						c0.05,0.181,0.271,0.334,0.461,0.262c0.828-0.315,1.695-0.483,2.581-0.493c0.203-0.002,0.375-0.171,0.375-0.375
						C209.351,439.379,209.18,439.203,208.976,439.206L208.976,439.206z"/>
				</g>
			</g>
			<g style="opacity:0.3;">
				<path d="M199.321,440.35c-0.053,0.9-0.398,1.888-1.269,2.305c-0.54,0.259-1.179,0.249-1.788,0.233
					c-1.82-0.048-3.639-0.097-5.458-0.145l-0.022-0.048c-0.287-2.371-1.058-8.156,1.197-8.154c1.775-0.002,3.639,3.319,7.351,2.35
					C199.302,438.146,199.357,439.745,199.321,440.35z"/>
			</g>
			<g>
				<path style="fill:#263238;" d="M224.244,337.134c-1.636-14.815-22.281-93.444-22.281-93.444l-26.247-0.637l-40.382-1.141
					c0,0-2.332,21.075-2.362,48.676c0,0,1.955,117.843,3.554,145.891l22.178,0.857c2.521-22.039,5.858-90.798,5.858-90.798
					c1.521-12.458,2.892-49.23,3.981-59.73c0.453-2.324,0.897-4.666,1.331-6.999c4.306,11.388,24.074,60.112,25.6,67.099
					l-8.11,92.674l23.853-0.912C211.218,438.669,225.879,351.949,224.244,337.134z"/>
				<path d="M188.083,246.745c2.431,7.563,8.931,13.638,16.949,15.847c0.433,0.119,0.249,0.76-0.186,0.64
					c-8.255-2.274-14.936-8.525-17.439-16.311C187.275,246.512,187.952,246.337,188.083,246.745L188.083,246.745z"/>
				<path d="M167.968,247.852c0.473,6.617,0.936,13.244,1.409,19.861c0.023,0.427,0.721,0.427,0.699,0
					c-0.248-3.394-0.485-6.798-0.721-10.203c1.725,1.26,3.743-0.267,4.307-1.953c0.924-2.732,0.575-5.977-0.147-8.708
					c-0.113-0.416-0.789-0.235-0.676,0.171c0.507,1.921,0.721,3.885,0.575,5.859c-0.068,1.003-0.169,2.156-0.665,3.074
					c-0.552,1.025-1.95,1.889-3.067,0.961c-0.124-0.096-0.259-0.107-0.372-0.053c-0.214-2.999-0.428-6.008-0.643-9.007
					C168.645,247.425,167.946,247.425,167.968,247.852z"/>
				<path d="M151.517,246.633c0.099,8.771-7.035,16.117-16.259,16.806c-0.442,0.033-0.44-0.62,0-0.652
					c8.851-0.661,15.664-7.76,15.57-16.154C150.823,246.213,151.512,246.213,151.517,246.633L151.517,246.633z"/>
			</g>
			<g>
				<g>
					<polygon style="fill:#263238;" points="154.863,417.941 150.957,444.233 141.616,444.667 138.592,419.32 					"/>
				</g>
			</g>
			<g>
				<path style="fill:#407BFF;" d="M133.663,456.441h20.893c0,0,0.456-0.805-0.065-2.948c-0.079-0.334-0.183-0.701-0.318-1.101
					c-0.007-0.02-0.012-0.04-0.019-0.06c-0.195-0.593-0.42-1.323-0.658-2.11c-0.957-3.209-1.608-10.59-1.608-10.59
					s-3.95-3.638-8.017-1.933c-3.568,1.495-3.014,3.391-3.014,3.391s-0.057,4.896-2.762,7.111c-1.673,1.369-3.336,2.428-4.137,4.131
					c-0.149,0.318-0.268,0.657-0.352,1.024c-0.01,0.044-0.019,0.091-0.027,0.137C133.413,454.313,133.423,455.275,133.663,456.441z"
					/>
			</g>
			<path style="fill:#FFFFFF;" d="M154.491,453.493c0.521,2.143,0.065,2.948,0.065,2.948h-20.893
				c-0.241-1.165-0.251-2.128-0.084-2.948H154.491z"/>
			<g>
				<g>
					<path style="fill:#263238;" d="M141.99,444.547c1.175-0.84,2.717-0.731,3.774,0.215c0.284,0.254,0.72-0.145,0.436-0.4
						c-1.319-1.18-3.203-1.246-4.646-0.215C141.241,444.371,141.68,444.769,141.99,444.547L141.99,444.547z"/>
				</g>
			</g>
			<g>
				<g>
					<path style="fill:#263238;" d="M141.4,446.337c1.175-0.84,2.717-0.731,3.774,0.215c0.284,0.254,0.721-0.145,0.436-0.4
						c-1.319-1.18-3.203-1.246-4.646-0.215C140.651,446.161,141.09,446.559,141.4,446.337L141.4,446.337z"/>
				</g>
			</g>
			<g>
				<g>
					<path style="fill:#263238;" d="M140.808,447.983c1.175-0.84,2.717-0.731,3.774,0.215c0.284,0.254,0.721-0.145,0.436-0.4
						c-1.319-1.181-3.203-1.246-4.646-0.215C140.059,447.807,140.498,448.204,140.808,447.983L140.808,447.983z"/>
				</g>
			</g>
			<g>
				<path style="fill:#407BFF;" d="M201.789,237.557c3.72,6.111,3.72,11.018,0.174,12.27c0,0-32.229,5.465-65.195,1.719
					c-7.937,0.437-4.053-6.921-4.053-6.921l-0.176-101.747c25.051-5.317,55.362-0.403,61.498,0L201.789,237.557z"/>
				<path style="fill:#B97964;" d="M123.204,157.648c0,0-10.222,45.196-11.134,55.579c-0.911,10.383-1.124,60.007-1.124,60.007
					l10.826-1.057l6.089-51.329l12.198-60.489L123.204,157.648z"/>
				<g>
					<g>
						<g>
							<g>
								<g>
									<g>
										<path style="fill:#B97964;" d="M120.999,270.736c0,0,3.391,2.117,4.166,5.461c0.776,3.344,2.237,5.796,2.651,8.324
											c0.414,2.528-2.118,0.333-3.241-1.124c-1.124-1.456-2.411-3.095-3.309-2.025c-0.898,1.069-3.269,13.112-4.673,14.445
											c-1.404,1.333-1.596-0.742-1.596-0.742s-0.65,2.908-1.81,2.95c-0.301,0.011-1.018-0.481-0.918-1.855
											c0.225-3.092,1.013-9.557,1.013-9.557c-0.038,0.372-1.55,8.277-1.922,9.43c-0.487,1.507-1.443,1.954-2.259,1.627
											c-1.162-0.466,0.396-10.335,0.187-10.799c0,0-0.718,5.713-2.213,6.325c-1.496,0.611-1.229-3.012-0.421-6.159
											c0.741-2.885,1.48-8.75,2.503-11.605c1.26-3.519,2.853-5.582,6.181-5.809
											C118.666,269.397,120.999,270.736,120.999,270.736z"/>
									</g>
								</g>
							</g>
						</g>
					</g>
				</g>
				<path style="fill:#407BFF;" d="M132.539,142.879c0,0-7.92-0.001-10.932,10.719c-3.214,11.438-10.991,57.832-12.118,63.872
					c-1.127,6.04-0.302,52.128-0.302,52.128h14.604c0,0,3.709-46.951,4.072-48.749s15.361-61.103,15.361-61.103L132.539,142.879z"/>
				<path style="opacity:0.2;enable-background:new    ;" d="M132.641,202.041v-33.652c0,0-4.933,34.491-2.449,43.047
					L132.641,202.041z"/>
				<path style="fill:#407BFF;" d="M193.024,142.879c0,0,9.689-0.362,13.957,12.657c4.565,13.926,14.252,48.929,14.252,48.929
					l30.334,29.171l-5.571,6.034c0,0-23.396-12.283-34.369-19.131c-10.973-6.848-18.131-40.528-17.882-42.277
					C193.995,176.514,193.024,142.879,193.024,142.879z"/>
				<path style="opacity:0.2;enable-background:new    ;" d="M201.347,205.26l-2.79-7.182l-3.489-33.013
					C195.067,165.065,202.932,191.273,201.347,205.26z"/>
			</g>
			<g>
				<path style="fill:#263238;" d="M180.272,97.602c0,0,13.296-7.487,5.404-15.517c-6.225-6.334-11.732-5.41-20.059-3.894
					c-20.407,3.716-19.219,12.219-19.219,12.219L180.272,97.602z"/>
				<g>
					<path style="fill:#B97964;" d="M154.285,140.421c0,0,1.091-7.827-3.491-21.396c0-0.015,0.71-0.367,0.71-0.382
						c-0.633-1.898-1.294-3.649-1.913-5.164c-0.015-0.044-0.015-0.059-0.015-0.059l19.303,10.799
						c-0.25,4.414,1.697,12.837,2.794,16.382c0,0,2.656,6.391-5.971,7.051C159.398,148.133,154.285,140.421,154.285,140.421z"/>
					<path style="opacity:0.2;" d="M169.47,130.383l-10.925-1.968c1.128,3.322,4.279,7.18,11.822,7.178
						C170.367,135.593,169.453,131.86,169.47,130.383z"/>
				</g>
				<g>
					<path style="fill:#B97964;" d="M149.033,104.294c1.786,11.862,2.555,18.588,9.126,24.121
						c9.885,8.323,23.815,1.723,25.613-10.47c1.618-10.974-1.575-28.529-13.682-32.13
						C158.162,82.268,147.247,92.432,149.033,104.294z"/>
					<path style="fill:#263238;" d="M146.254,90.087c14.563-14.026,29.377-6.158,35.05,1.532l-25.408,0.3
						c-1.11-0.02-1.74,1.137-1.499,3.252c0,0,8.809,15.797-3.334,24.662c-4.344-1.663-5.227-8.889-6.921-13.089
						C141.616,100.488,138.428,91.278,146.254,90.087z"/>
					<path style="fill:#B97964;" d="M145.201,114.652c1.225,2.987,3.719,5.115,6.189,6.081c3.715,1.453,4.699-2.555,4.029-6.283
						c-0.602-3.355-1.953-7.388-5.857-7.248C145.717,107.34,143.801,111.238,145.201,114.652z"/>
					<path style="fill:#263238;" d="M165.056,106.021c0.108,1.22,0.842,2.146,1.641,2.068c0.798-0.078,1.358-1.131,1.25-2.352
						c-0.108-1.221-0.842-2.146-1.641-2.068C165.508,103.747,164.949,104.8,165.056,106.021z"/>
					<path style="fill:#263238;" d="M177.386,105.619c0.108,1.221,0.842,2.146,1.64,2.068c0.798-0.078,1.358-1.131,1.25-2.352
						c-0.108-1.22-0.842-2.146-1.64-2.068C177.838,103.346,177.278,104.399,177.386,105.619z"/>
					<path style="fill:#A24E3F;" d="M174.445,105.077c0,0,4.399,5.723,5.856,8.083c-1.563,1.685-4.552,1.236-4.552,1.236
						L174.445,105.077z"/>
					<path style="fill:#263238;" d="M162.917,100.74c0.191,0.059,0.408,0.017,0.566-0.131c1.878-1.752,3.938-1.283,3.959-1.278
						c0.308,0.074,0.62-0.115,0.697-0.422c0.076-0.307-0.112-0.615-0.418-0.69c-0.109-0.026-2.69-0.615-5.02,1.559
						c-0.233,0.217-0.246,0.579-0.03,0.808C162.741,100.661,162.826,100.712,162.917,100.74z"/>
					
						<path style="fill:none;stroke:#263238;stroke-width:0.75;stroke-linecap:round;stroke-linejoin:round;stroke-miterlimit:10;" d="
						M172.093,118.638c-1.978,0.19-3.601-0.662-5.265-2.001"/>
				</g>
				
					<path style="opacity:0.2;fill:none;stroke:#000000;stroke-width:0.5;stroke-linecap:round;stroke-linejoin:round;stroke-miterlimit:10;" d="
					M147.634,111.114c0.418-0.755,1.374-1.103,2.227-0.971c0.852,0.132,1.597,0.666,2.167,1.314
					c0.684,0.777,1.161,1.735,1.367,2.749"/>
				<path style="fill:#263238;" d="M183.226,99.792c0.104-0.032,0.2-0.095,0.275-0.186c0.201-0.246,0.167-0.609-0.076-0.81
					c-2.44-2.013-4.953-1.216-5.07-1.195c-0.301,0.097-0.469,0.421-0.375,0.723c0.094,0.301,0.411,0.468,0.711,0.374
					c0.103-0.037,2.047-0.627,4.005,0.989C182.849,99.815,183.049,99.847,183.226,99.792z"/>
				<path style="opacity:0.3;fill:#FFFFFF;" d="M142.342,101.79l14.578,0.358c0,0-0.521-2.465-1.564-4.93h-13.992
					C141.365,97.218,141.463,98.971,142.342,101.79z"/>
				<g style="opacity:0.2;">
					<path d="M165.872,113.879c-1.052,1.138-1.614,2.715-1.519,4.262c0,0-0.708-1.226-0.394-2.521
						C164.272,114.325,165.872,113.879,165.872,113.879z"/>
				</g>
			</g>
			<g>
				<polygon style="fill:#407BFF;" points="169.896,134.171 176.778,140.363 165.289,154.295 148.69,140.301 153.61,133.068 
					163.985,141.733 				"/>
				<polygon style="opacity:0.8;fill:#FFFFFF;" points="169.896,134.171 176.778,140.363 165.289,154.295 148.69,140.301 
					153.61,133.068 163.985,141.733 				"/>
			</g>
		</g>
		<g id="freepik--Character--inject-255">
			<path style="fill:#407BFF;" d="M343.079,390.416V346.83c0-13.005,3.142-31.562-11.051-38.034
				c-4.343-1.977-9.268-1.725-13.974-1.662c-0.198-2.929-2.545-5.2-5.374-5.2h-50.16c-2.838,0-5.188,2.286-5.374,5.225h-12.64
				l-2.293-22.724c-0.667-6.559-0.898-13.358-2.062-19.854c-1.766-9.23-9.518-15.915-18.584-16.027h-0.4
				c-0.569-0.634-1.374-0.983-2.208-0.957h-21.459c-4.003,0-4.015,6.458,0,6.458h21.459c0.759,0.024,1.497-0.265,2.05-0.806
				c5.519,0.441,10.554,2.065,13.538,8.12c1.383,2.82,1.565,5.779,1.868,8.813l1.322,12.615l4.476,44.379
				c-25.935,4.96-45.793,31.474-45.793,63.515c0,35.478,24.467,64.346,54.588,64.346c29.453,0,53.508-27.697,54.515-62.092h22.357
				c3.296-0.189,6.601-0.063,9.874,0.378c0.352,0.063,0.704,0.138,1.043,0.227v27.408c-2.455-1.792-5.381-2.759-8.382-2.77
				c-8.807,0-15.964,8.259-15.964,18.431s7.157,18.419,15.964,18.419c8.807,0,15.964-8.259,15.964-18.419
				c0.018-3.951-1.11-7.816-3.239-11.091c0-0.176,0-0.353,0-0.541v-34.622L343.079,390.416z M330.329,447.334
				c-4.682,0-8.491-4.784-8.491-10.664c0-5.879,3.809-10.676,8.491-10.676c3.176,0.139,5.999,2.141,7.278,5.162
				c-1.128,2.921-3.384,5.036-7.861,5.275c-2.79,0.139-2.802,4.671,0,4.52c3.398-0.066,6.643-1.476,9.074-3.941
				C338.663,442.689,334.927,447.334,330.329,447.334z M250.923,447.334c-25.96,0-47.079-25.381-47.079-56.591
				c0-27.937,16.983-51.202,39.109-55.772c0.109,1.133,0.23,2.266,0.34,3.399c-21.132,4.306-37.253,26.136-37.253,52.373
				c0,29.309,20.137,53.154,44.883,53.154c24.116,0,43.84-22.661,44.883-50.9h2.196
				C296.982,423.162,276.263,447.334,250.923,447.334z M295.806,388.477c-1.007-28.264-20.731-50.9-44.883-50.9
				c-1.116,0-2.232,0.063-3.336,0.164l-0.34-3.412c1.213-0.113,2.426-0.189,3.639-0.189c25.341,0,46.096,24.172,47.042,54.337
				H295.806z M245.803,362.845c0.619,6.194,0.97,12.502,1.892,18.658c1.929,12.904,14.326,11.494,23.667,11.494h21.083
				c-0.995,26.438-19.227,47.451-41.523,47.451c-22.915,0-41.559-22.296-41.559-49.704c0-24.437,14.824-44.807,34.281-48.936
				c0.703,7.017,1.411,14.029,2.123,21.037H245.803z M283.699,388.477h-17.092c-2.814,0-6.344,0.491-9.074-0.478
				c-7.424-2.631-6.478-15.863-7.133-22.347c-0.809-8.158-1.617-16.32-2.426-24.487c0.983-0.076,1.977-0.138,2.984-0.138
				c22.296,0,40.528,21.088,41.523,47.451H283.699z M333.653,388.477c-3.19-0.063-6.393,0-9.583,0h-18.633
				c-1.007-34.445-25.062-62.092-54.515-62.092c-1.492,0-2.984,0.088-4.452,0.227c-0.51-4.977-1.015-9.954-1.516-14.931h13.926
				c0.993,0.946,2.291,1.472,3.639,1.473h50.16c1.35,0,2.651-0.53,3.639-1.486h7.072c8.491,0,15.078,5.917,15.321,15.02
				c0.121,4.293,0,8.611,0,12.905v49.465c-1.694-0.357-3.415-0.551-5.143-0.579H333.653z"/>
			<path style="opacity:0.4;enable-background:new    ;" d="M343.079,390.416V346.83c0-13.005,3.142-31.562-11.051-38.034
				c-4.343-1.977-9.268-1.725-13.974-1.662c-0.198-2.929-2.545-5.2-5.374-5.2h-50.16c-2.838,0-5.188,2.286-5.374,5.225h-12.64
				l-2.293-22.724c-0.667-6.559-0.898-13.358-2.062-19.854c-1.766-9.23-9.518-15.915-18.584-16.027h-0.4
				c-0.569-0.634-1.374-0.983-2.208-0.957h-21.459c-4.003,0-4.015,6.458,0,6.458h21.459c0.759,0.024,1.497-0.265,2.05-0.806
				c5.519,0.441,10.554,2.065,13.538,8.12c1.383,2.82,1.565,5.779,1.868,8.813l1.322,12.615l4.476,44.379
				c-25.935,4.96-45.793,31.474-45.793,63.515c0,35.478,24.467,64.346,54.588,64.346c29.453,0,53.508-27.697,54.515-62.092h22.357
				c3.296-0.189,6.601-0.063,9.874,0.378c0.352,0.063,0.704,0.138,1.043,0.227v27.408c-2.455-1.792-5.381-2.759-8.382-2.77
				c-8.807,0-15.964,8.259-15.964,18.431s7.157,18.419,15.964,18.419c8.807,0,15.964-8.259,15.964-18.419
				c0.018-3.951-1.11-7.816-3.239-11.091c0-0.176,0-0.353,0-0.541v-34.622L343.079,390.416z M330.329,447.334
				c-4.682,0-8.491-4.784-8.491-10.664c0-5.879,3.809-10.676,8.491-10.676c3.176,0.139,5.999,2.141,7.278,5.162
				c-1.128,2.921-3.384,5.036-7.861,5.275c-2.79,0.139-2.802,4.671,0,4.52c3.398-0.066,6.643-1.476,9.074-3.941
				C338.663,442.689,334.927,447.334,330.329,447.334z M250.923,447.334c-25.96,0-47.079-25.381-47.079-56.591
				c0-27.937,16.983-51.202,39.109-55.772c0.109,1.133,0.23,2.266,0.34,3.399c-21.132,4.306-37.253,26.136-37.253,52.373
				c0,29.309,20.137,53.154,44.883,53.154c24.116,0,43.84-22.661,44.883-50.9h2.196
				C296.982,423.162,276.263,447.334,250.923,447.334z M295.806,388.477c-1.007-28.264-20.731-50.9-44.883-50.9
				c-1.116,0-2.232,0.063-3.336,0.164l-0.34-3.412c1.213-0.113,2.426-0.189,3.639-0.189c25.341,0,46.096,24.172,47.042,54.337
				H295.806z M245.803,362.845c0.619,6.194,0.97,12.502,1.892,18.658c1.929,12.904,14.326,11.494,23.667,11.494h21.083
				c-0.995,26.438-19.227,47.451-41.523,47.451c-22.915,0-41.559-22.296-41.559-49.704c0-24.437,14.824-44.807,34.281-48.936
				c0.703,7.017,1.411,14.029,2.123,21.037H245.803z M283.699,388.477h-17.092c-2.814,0-6.344,0.491-9.074-0.478
				c-7.424-2.631-6.478-15.863-7.133-22.347c-0.809-8.158-1.617-16.32-2.426-24.487c0.983-0.076,1.977-0.138,2.984-0.138
				c22.296,0,40.528,21.088,41.523,47.451H283.699z M333.653,388.477c-3.19-0.063-6.393,0-9.583,0h-18.633
				c-1.007-34.445-25.062-62.092-54.515-62.092c-1.492,0-2.984,0.088-4.452,0.227c-0.51-4.977-1.015-9.954-1.516-14.931h13.926
				c0.993,0.946,2.291,1.472,3.639,1.473h50.16c1.35,0,2.651-0.53,3.639-1.486h7.072c8.491,0,15.078,5.917,15.321,15.02
				c0.121,4.293,0,8.611,0,12.905v49.465c-1.694-0.357-3.415-0.551-5.143-0.579H333.653z"/>
			<g>
				<path style="fill:#407BFF;" d="M255.357,236.268c0,0,7.903,1.141,11.443,7.689c4.171,7.715,13.569,20.936,13.569,20.936
					l10.078-16.954l10.955,4.135c0,0-11.637,23.469-14.04,27.836c-2.919,5.305-9.866,3.204-12.392,1.516
					c-5.927-3.96-11.961-10.736-11.961-10.736L255.357,236.268z"/>
				<path style="opacity:0.5;fill:#FFFFFF;" d="M255.357,236.268c0,0,7.903,1.141,11.443,7.689
					c4.171,7.715,13.569,20.936,13.569,20.936l10.078-16.954l10.955,4.135c0,0-11.637,23.469-14.04,27.836
					c-2.919,5.305-9.866,3.204-12.392,1.516c-5.927-3.96-11.961-10.736-11.961-10.736L255.357,236.268z"/>
			</g>
			<path style="fill:#407BFF;" d="M198.482,349.292h137.855c2.336,0,4.229,1.893,4.229,4.229v1.714c0,2.336-1.893,4.229-4.229,4.229
				H198.482c-2.336,0-4.229-1.893-4.229-4.229v-1.714C194.253,351.185,196.147,349.292,198.482,349.292z"/>
			<polygon style="fill:#407BFF;" points="193.522,307.47 245.059,307.47 241.63,273.706 190.093,273.706 			"/>
			<path style="fill:#263238;" d="M348.56,338.762c-3.534-15.734-11.91-19.897-18.374-21.991
				c-17.277-5.738-59.173-9.658-59.173-9.658l-3.417-4.643l-49.066-3.235c0,0,2.183,31.741,30.575,44.999
				c4.185,1.857,8.574,3.215,13.076,4.046c32.518,6.504,61.881,1.377,61.881,1.377l17.767,66.467l21.141-5.826L348.56,338.762z"/>
			<g>
				<g>
					<g>
						<path style="fill:#407BFF;" d="M360.49,410.907c-0.085-1.433-0.349-2.6-1.881-2.465l-2.169,0.19
							c-0.813,0.118-1.316,0.745-1.902,1.293c-4.434,4.145-7.099,0.01-9.013,0.29c-2.459,0.354,0.262,7.985,0.205,8.414
							l-1.365,9.511c-0.123,0.796,0.588,2.371,1.436,2.471c0.151,0.018,0.304,0.014,0.455-0.01c4.365-0.633,6.431-0.932,11.864-1.72
							l16.617-2.409c4.53-0.657,3.778-6.21,1.855-6.334c-8.641-0.513-12.349-2.778-15.404-4.385
							C361.187,415.753,360.62,413.11,360.49,410.907z"/>
						<path style="opacity:0.4;fill:#FFFFFF;" d="M374.736,426.472l-16.617,2.409c-5.433,0.788-7.499,1.087-11.864,1.72
							c-0.151,0.024-0.304,0.027-0.455,0.01c-0.576-0.068-1.081-0.815-1.313-1.538l-0.089-0.696l33.62-4.874
							C377.759,424.858,376.8,426.172,374.736,426.472z"/>
						<g>
							<g>
								<path style="fill:#263238;" d="M365.554,417.954c-0.658,0.81-1.16,1.721-1.485,2.713c-0.063,0.193,0.073,0.409,0.262,0.461
									c0.203,0.056,0.398-0.069,0.461-0.262c0.278-0.849,0.73-1.69,1.292-2.382c0.128-0.157,0.154-0.377,0-0.53
									C365.952,417.822,365.682,417.796,365.554,417.954L365.554,417.954z"/>
							</g>
						</g>
						<g>
							<g>
								<path style="fill:#263238;" d="M362.705,416.744c-0.603,0.77-1.077,1.613-1.416,2.531c-0.068,0.184,0.076,0.419,0.262,0.461
									c0.212,0.048,0.388-0.065,0.461-0.262c0.277-0.751,0.73-1.57,1.223-2.2c0.121-0.154,0.161-0.382,0-0.53
									C363.1,416.621,362.834,416.579,362.705,416.744L362.705,416.744z"/>
							</g>
						</g>
						<g>
							<g>
								<path style="fill:#263238;" d="M360.72,415.573c-0.661,0.497-1.151,1.171-1.398,1.962c-0.058,0.187,0.069,0.417,0.262,0.461
									c0.204,0.046,0.399-0.061,0.461-0.262c0.026-0.084,0.055-0.167,0.087-0.248c0.003-0.009,0.007-0.017,0.01-0.026
									c0.01-0.026,0.007-0.017-0.011,0.026c0.003,0,0.02-0.046,0.022-0.051c0.017-0.038,0.035-0.076,0.053-0.113
									c0.078-0.158,0.167-0.309,0.268-0.453c0.024-0.034,0.048-0.068,0.073-0.101c0.035-0.047-0.01,0.002-0.008,0.01
									c-0.001-0.006,0.038-0.047,0.044-0.054c0.056-0.068,0.114-0.133,0.175-0.197c0.058-0.06,0.117-0.118,0.179-0.173
									c0.034-0.031,0.069-0.061,0.105-0.091c0.014-0.012,0.029-0.023,0.043-0.035c0.073-0.06-0.064,0.048,0.012-0.009
									c0.081-0.061,0.144-0.122,0.172-0.224c0.025-0.09,0.014-0.209-0.038-0.289C361.134,415.553,360.888,415.447,360.72,415.573
									L360.72,415.573z"/>
							</g>
						</g>
						<g>
							<g>
								<path style="fill:#263238;" d="M360.388,412.638c-0.793,0.125-1.56,0.408-2.25,0.819c-0.168,0.101-0.245,0.342-0.134,0.513
									c0.109,0.169,0.333,0.242,0.513,0.134c0.332-0.198,0.649-0.349,0.971-0.464c0.357-0.128,0.725-0.22,1.1-0.279
									c0.194-0.031,0.319-0.284,0.262-0.461C360.781,412.689,360.596,412.605,360.388,412.638L360.388,412.638z"/>
							</g>
						</g>
						<g style="opacity:0.3;">
							<path d="M352.134,414.627c0.074,0.821-0.083,1.757-0.752,2.24c-0.414,0.299-0.947,0.367-1.455,0.426
								c-1.518,0.175-3.035,0.351-4.553,0.526l-0.025-0.041c-0.55-2.112-1.95-7.258-0.076-7.527
								c1.474-0.216,3.459,2.567,6.415,1.242C351.829,412.633,352.085,414.075,352.134,414.627z"/>
						</g>
					</g>
				</g>
				<path style="opacity:0.3;enable-background:new    ;" d="M302.487,318.813c17.27,4.732,16.224,15.022,21.576,30.484
					c0,0-22.826,3.869-53.366-0.029l-6.035-13.144l9.601-22.654C281.308,313.47,291.443,316.009,302.487,318.813z"/>
				<g>
					<g>
						<path style="fill:#407BFF;" d="M328.348,412.775c-0.085-1.433-0.349-2.6-1.881-2.465l-2.169,0.19
							c-0.813,0.118-1.316,0.745-1.902,1.293c-4.434,4.145-7.099,0.01-9.013,0.29c-2.459,0.354,0.262,7.985,0.205,8.414
							l-1.365,9.511c-0.123,0.796,0.588,2.371,1.436,2.471c0.151,0.018,0.304,0.014,0.455-0.01c4.365-0.633,6.431-0.932,11.864-1.72
							l16.617-2.409c4.53-0.657,3.778-6.21,1.855-6.334c-8.641-0.513-12.349-2.778-15.405-4.385
							C329.046,417.621,328.479,414.978,328.348,412.775z"/>
						<path style="opacity:0.4;fill:#FFFFFF;" d="M342.595,428.34l-16.617,2.409c-5.433,0.788-7.499,1.087-11.864,1.72
							c-0.151,0.024-0.304,0.027-0.455,0.01c-0.576-0.068-1.081-0.815-1.313-1.538l-0.089-0.696l33.62-4.874
							C345.618,426.725,344.658,428.04,342.595,428.34z"/>
						<g>
							<g>
								<path style="fill:#263238;" d="M333.413,419.822c-0.658,0.809-1.16,1.721-1.485,2.713c-0.063,0.193,0.073,0.409,0.262,0.461
									c0.203,0.056,0.398-0.069,0.461-0.262c0.277-0.849,0.73-1.69,1.292-2.382c0.128-0.157,0.154-0.377,0-0.53
									C333.811,419.69,333.541,419.664,333.413,419.822L333.413,419.822z"/>
							</g>
						</g>
						<g>
							<g>
								<path style="fill:#263238;" d="M330.564,418.612c-0.603,0.77-1.077,1.613-1.416,2.531c-0.068,0.184,0.076,0.419,0.262,0.461
									c0.212,0.048,0.388-0.065,0.461-0.262c0.277-0.751,0.73-1.57,1.223-2.2c0.121-0.154,0.161-0.382,0-0.53
									C330.959,418.488,330.693,418.447,330.564,418.612L330.564,418.612z"/>
							</g>
						</g>
						<g>
							<g>
								<path style="fill:#263238;" d="M328.579,417.441c-0.661,0.497-1.151,1.171-1.398,1.962
									c-0.058,0.187,0.069,0.417,0.262,0.461c0.204,0.046,0.399-0.061,0.461-0.262c0.026-0.084,0.055-0.167,0.087-0.248
									c0.003-0.009,0.007-0.017,0.01-0.026c0.011-0.026,0.007-0.017-0.011,0.026c0.003,0,0.02-0.046,0.022-0.051
									c0.017-0.038,0.035-0.076,0.053-0.113c0.078-0.158,0.167-0.309,0.268-0.453c0.024-0.034,0.048-0.068,0.073-0.101
									c0.035-0.047-0.01,0.002-0.008,0.01c-0.001-0.006,0.038-0.047,0.044-0.054c0.056-0.068,0.114-0.133,0.175-0.197
									c0.058-0.06,0.117-0.118,0.179-0.173c0.034-0.031,0.069-0.061,0.105-0.091c0.014-0.012,0.029-0.023,0.043-0.035
									c0.073-0.06-0.064,0.048,0.012-0.009c0.081-0.061,0.144-0.122,0.172-0.224c0.025-0.09,0.014-0.209-0.038-0.289
									C328.992,417.421,328.746,417.315,328.579,417.441L328.579,417.441z"/>
							</g>
						</g>
						<g>
							<g>
								<path style="fill:#263238;" d="M328.247,414.506c-0.793,0.125-1.56,0.408-2.249,0.819c-0.168,0.101-0.245,0.342-0.135,0.513
									c0.109,0.169,0.333,0.242,0.513,0.134c0.332-0.198,0.649-0.349,0.971-0.464c0.357-0.128,0.725-0.22,1.1-0.279
									c0.194-0.031,0.319-0.284,0.262-0.461C328.64,414.557,328.455,414.473,328.247,414.506L328.247,414.506z"/>
							</g>
						</g>
						<g style="opacity:0.3;">
							<path d="M319.993,416.495c0.074,0.821-0.083,1.757-0.752,2.24c-0.414,0.299-0.947,0.367-1.455,0.426
								c-1.518,0.175-3.036,0.351-4.553,0.526l-0.025-0.041c-0.55-2.112-1.95-7.258-0.076-7.527
								c1.474-0.216,3.459,2.567,6.415,1.242C319.687,414.501,319.943,415.943,319.993,416.495z"/>
						</g>
					</g>
				</g>
				<path style="fill:#263238;" d="M211.322,312.843c0,0-0.79,33.19,19.917,35.095c25.945,2.387,58.401,1.372,58.401,1.372
					l19.198,66.38l21.872-4.009c0,0-7.264-77.152-23.597-88.594c-4.412-3.086-49.065-13.565-49.065-13.565L211.322,312.843z"/>
			</g>
			<g>
				<path style="fill:#263238;" d="M237.385,212.113c-4.176-6.847-7.568-11.558-6.903-19.551l-4.974-7.169
					c-3.689-2.865-9.813-0.203-12.209,2.685c-2.396,2.888-3.401,6.743-3.398,10.496c0.002,3.131,0.654,6.238,0.607,9.369
					c-0.047,3.131-0.941,6.475-3.379,8.439c-1.658,1.337-4.018,2.069-4.811,4.046c-0.713,1.777,0.209,3.8,1.425,5.279
					c3.93,4.781,11.316,6.306,16.818,3.471c-0.759,1.78,0.55,3.932,2.349,4.645c1.799,0.713,3.853,0.311,5.65-0.405
					c3.296-1.314,7.964-4.763,9.041-8.144C238.903,221.189,240.448,217.135,237.385,212.113z"/>
			</g>
			<path style="fill:#B97964;" d="M243.119,245.63c-2.069,1.551-3.595,0.681-5.812-0.666c-13.309-7.319-8.049-13.471-8.049-13.471
				c3.177-2.717,3.892-6.456,3.826-12.341c0.008-0.17,0.027-0.34,0.058-0.507c0.131-0.763,0.495-1.467,1.041-2.015
				c1.454-1.538,3.879-1.606,5.417-0.153c0.001,0.001,0.003,0.003,0.004,0.004l6.032,2.81l0,0c0.004,0.089,0.007,0.179,0.011,0.28
				c-0.481,3.136-0.956,5.555-1.239,7.472c0.009,0.235-0.071,0.474-0.096,0.699l0,0c0.009,0.235-0.048,0.484-0.084,0.71
				c-0.265,2.646,0.075,4.134,1.737,5.335C246.963,234.59,250.133,240.406,243.119,245.63z"/>
			<path style="opacity:0.2;enable-background:new    ;" d="M245.636,219.27L245.636,219.27c-0.012,0.097-0.008,0.195,0.012,0.291
				c-0.481,3.136-0.956,5.555-1.239,7.472c-0.049,0.23-0.081,0.464-0.095,0.699l0,0c-0.026,0.246-0.035,0.494-0.026,0.741l0,0
				c-4.595-2.069-8.445-5.496-11.032-9.821l0,0c0.126-0.752,0.468-1.452,0.985-2.013c1.439-1.551,3.861-1.647,5.418-0.216
				L245.636,219.27z"/>
			<g>
				<path style="opacity:0.2;enable-background:new    ;" d="M266.529,261.337c-0.609-7.241-4.997-13.929-4.997-13.929
					s1.226,2.11,2.754,7.277c1.577,5.336-5.114,16.563-5.114,16.563l4.488,0.153C265.725,268.033,266.891,265.634,266.529,261.337z"
					/>
				<path style="fill:#407BFF;" d="M216.905,290.146l-0.913,17.91l53.146-4.921c-1.498-3.811-7.269-19.707-7.238-23.448
					c0.866-4.733,2.135-9.739,3.387-15.485c1.349-9.303-8.173-28.021-9.616-28.683c-2.711-1.242-8.672-2.86-10.305-3.019
					c-5.315-0.523-10.655-0.759-15.995-0.709c-1.03,0.041-2.063-0.007-3.083,0.011c0,0-19.953,0.954-19.75,9.154
					C206.512,241.417,215.872,264.218,216.905,290.146z"/>
				<path style="opacity:0.5;fill:#FFFFFF;" d="M216.905,290.146l-0.913,17.91l53.146-4.921c-1.498-3.811-7.269-19.707-7.238-23.448
					c0.866-4.733,2.135-9.739,3.387-15.485c1.349-9.303-8.173-28.021-9.616-28.683c-2.711-1.242-8.672-2.86-10.305-3.019
					c-5.315-0.523-10.655-0.759-15.995-0.709c-1.03,0.041-2.063-0.007-3.083,0.011c0,0-19.953,0.954-19.75,9.154
					C206.512,241.417,215.872,264.218,216.905,290.146z"/>
				<path style="fill:#B97964;" d="M227.167,231.672c1.679,5.15,5.919,8.997,11.111,10.221c1.241,0.293,2.547,0.325,3.768-0.042
					c1.504-0.453,2.541-1.299,3.554-2.398c1.477-2.306,0.821-6.228,0.79-6.62C239.727,230.888,233.855,230.279,227.167,231.672z"/>
			</g>
			<polygon style="opacity:0.2;enable-background:new    ;" points="216.274,302.518 228.954,305.332 234.281,305.332 
				235.411,302.435 216.539,298.453 			"/>
			<path style="opacity:0.2;enable-background:new    ;" d="M214.18,268.051c0,0,2.26-10.855,2.169-10.417
				c-0.091,0.438,0.862,15.306-0.804,18.268L214.18,268.051z"/>
			<path style="fill:#407BFF;" d="M212.144,234.91c0,0-4.418,0.553-9.451,9.274c-5.034,8.721-11.178,40.77-7.478,47.889
				c3.7,7.12,39.225,12.857,39.225,12.857l5.012-12.863l-28.01-10.858l5.431-26.089L212.144,234.91z"/>
			<path style="opacity:0.5;fill:#FFFFFF;" d="M212.144,234.91c0,0-4.418,0.553-9.451,9.274c-5.034,8.721-11.178,40.77-7.478,47.889
				c3.7,7.12,39.225,12.857,39.225,12.857l5.012-12.863l-28.01-10.858l5.431-26.089L212.144,234.91z"/>
			<g>
				<g>
					<g>
						<path style="fill:#407BFF;" d="M227.828,193.341c-0.148-1.294-0.633-2.523-0.948-3.786c-0.315-1.264-0.451-2.645,0.08-3.834
							l-0.296,0.184c-2.15,0.202-3.97,1.797-5.023,3.683c-0.701,1.257-1.132,2.701-0.998,4.135c0.133,1.433,0.885,2.844,2.126,3.575
							c1.241,0.73,2.966,0.654,4.011-0.336C227.724,196.064,227.975,194.635,227.828,193.341z"/>
					</g>
					<path style="fill:#B97964;" d="M227.676,196.991c0.117,11.336-0.072,16.124,5.255,22.495
						c8.013,9.584,21.693,7.691,24.912-3.275c2.898-9.869,2.22-26.749-8.442-32.375C238.896,178.293,227.56,185.655,227.676,196.991
						z"/>
					<path style="fill:#263238;" d="M241.403,201.677c-0.027,1.058,0.55,1.977,1.289,2.053c0.738,0.076,1.359-0.721,1.386-1.779
						c0.027-1.058-0.55-1.977-1.289-2.053C242.051,199.823,241.431,200.619,241.403,201.677z"/>
					<path style="fill:#263238;" d="M253.077,202.465c-0.024,1.025,0.554,1.918,1.29,1.994c0.736,0.076,1.353-0.695,1.377-1.72
						c0.024-1.025-0.554-1.918-1.29-1.994C253.717,200.669,253.101,201.44,253.077,202.465z"/>
					<path style="fill:#263238;" d="M239.942,197.5c0.142,0.028,0.291-0.002,0.41-0.096c1.864-1.464,3.77-0.742,3.792-0.734
						c0.282,0.108,0.588-0.032,0.679-0.322c0.089-0.289-0.069-0.614-0.355-0.727c-0.1-0.038-2.492-0.947-4.805,0.871
						c-0.23,0.181-0.263,0.533-0.074,0.784C239.682,197.398,239.809,197.475,239.942,197.5z"/>
					<path style="fill:#263238;" d="M257.038,198.326c0.13,0.043,0.273,0.038,0.399-0.027c0.26-0.135,0.353-0.471,0.206-0.75
						c-1.468-2.8-3.96-3.166-4.066-3.179c-0.298-0.04-0.556,0.176-0.575,0.484c-0.02,0.307,0.206,0.588,0.503,0.63
						c0.098,0.013,2.027,0.325,3.194,2.552C256.775,198.179,256.899,198.28,257.038,198.326z"/>
					<path style="fill:#263238;" d="M231.897,204.439c0,0,3.898-4.966,3.298-15.302c-0.101-1.733,1.115-3.267,2.84-3.459
						c4.931-0.548,11.919-6.145,18.85,6.661c0,0-2.776-15.786-25.18-10.803c-14.412,3.206-7.984,21.396-6.094,23.276
						C227.5,206.693,231.897,204.439,231.897,204.439z"/>
					<path style="fill:#B97964;" d="M223.527,205.885c1.141,2.416,3.183,4.04,5.123,4.698c2.917,0.989,4.845-3.675,4.07-6.741
						c-0.697-2.76-3.479-4.776-6.425-4.426C223.393,199.76,222.221,203.123,223.527,205.885z"/>
					<path style="fill:#263238;" d="M249.347,213.227c-1.031,1.336-2.354,3.978-2.354,3.978c-0.261-0.077-0.522-0.153-0.778-0.243
						c-3.514-1.129-4.771-2.814-5.099-4.34c-0.176-0.835-0.064-1.629,0.109-2.251c0.193-0.721,0.494-1.191,0.494-1.191
						c1.505,1.712,4.7,3.017,6.436,3.643C248.879,213.093,249.347,213.227,249.347,213.227z"/>
					<path style="fill:#FFFFFF;" d="M248.156,212.824l-0.724,1.155c-3.307-1.072-5.492-2.27-6.206-3.607
						c0.193-0.721,0.494-1.191,0.494-1.191C243.225,210.893,246.42,212.198,248.156,212.824z"/>
					<path style="fill:#DE5753;" d="M246.215,216.962c-3.514-1.129-4.771-2.814-5.099-4.34c1.183,0.431,2.561,1.082,3.654,2.027
						C245.608,215.369,246.015,216.195,246.215,216.962z"/>
					<path style="fill:#A24E3F;" d="M250.078,201.912c0,0,1.418,4.355,3.191,7.142c0.31,0.487,0.041,1.139-0.516,1.294
						c-1.431,0.398-3.019-0.197-3.019-0.197L250.078,201.912z"/>
					
						<path style="opacity:0.2;fill:none;stroke:#000000;stroke-width:0.5;stroke-linecap:round;stroke-linejoin:round;stroke-miterlimit:10;" d="
						M230.541,206.688c0.249-1.008,0.082-2.111-0.454-3c-0.535-0.889-1.432-1.553-2.439-1.804"/>
				</g>
				<path style="fill:#263238;" d="M242.566,199.855l2.632-0.4C245.198,199.454,243.63,201.266,242.566,199.855z"/>
				<path style="fill:#263238;" d="M254.186,200.75l2.632-0.4C256.818,200.35,255.249,202.161,254.186,200.75z"/>
				<g>
					<path style="fill:#263238;" d="M258.467,197.259c0,0,7.52-7.774-3.706-15.571c0,0-9.815-6.487-20.208-0.655
						c-10.393,5.831-10.921,10.3-2.396,21.303c0,0-0.901-1.422,2.806-4.188c3.707-2.766,7.745-5.167,6.131-8.273
						c0,0,2.786,1.343,2.769,4.096l5.17-0.97c0,0-0.061-1.974-1.24-4.039c0,0,2.496,1.757,3.163,4.091l4.309,1.179
						c0,0-0.316-4.067-1.434-5.609C253.831,188.624,257.504,193.071,258.467,197.259z"/>
				</g>
			</g>
			<path style="fill:#263238;" d="M154.386,248.477h5.246c4.983,0,9.99-0.149,14.973,0c8.542,0.101,15.847,6.171,17.51,14.55
				c1.143,5.898,1.326,12.07,1.943,18.025c2.576,24.574,5.151,49.152,7.727,73.734c0.617,5.886-0.274,17.899,6.721,20.288
				c2.56,0.88,5.898,0.434,8.549,0.434h54.098c3.017,0,6.024-0.057,9.041,0c2.431,0.038,4.844,0.423,7.167,1.143v4.32
				c-1.081-0.457-2.207-0.798-3.36-1.017c-3.084-0.4-6.199-0.515-9.304-0.343h-53.206c-8.801,0-20.482,1.28-22.3-10.436
				c-0.857-5.589-1.143-11.315-1.783-16.939c-2.538-24.208-5.071-48.417-7.601-72.625c-0.411-3.81-0.815-7.639-1.212-11.487
				c-0.286-2.777-0.446-5.464-1.76-8.001c-3.703-7.258-10.79-7.521-17.819-7.521h-14.63c-1.139,0-2.063-0.924-2.063-2.063
				C152.323,249.401,153.247,248.477,154.386,248.477z"/>
			<path style="opacity:0.7;fill:#FFFFFF;enable-background:new    ;" d="M154.386,248.477h5.246c4.983,0,9.99-0.149,14.973,0
				c8.542,0.101,15.847,6.171,17.51,14.55c1.143,5.898,1.326,12.07,1.943,18.025c2.576,24.574,5.151,49.152,7.727,73.734
				c0.617,5.886-0.274,17.899,6.721,20.288c2.56,0.88,5.898,0.434,8.549,0.434h54.098c3.017,0,6.024-0.057,9.041,0
				c2.431,0.038,4.844,0.423,7.167,1.143v4.32c-1.081-0.457-2.207-0.798-3.36-1.017c-3.084-0.4-6.199-0.515-9.304-0.343h-53.206
				c-8.801,0-20.482,1.28-22.3-10.436c-0.857-5.589-1.143-11.315-1.783-16.939c-2.538-24.208-5.071-48.417-7.601-72.625
				c-0.411-3.81-0.815-7.639-1.212-11.487c-0.286-2.777-0.446-5.464-1.76-8.001c-3.703-7.258-10.79-7.521-17.819-7.521h-14.63
				c-1.139,0-2.063-0.924-2.063-2.063C152.323,249.401,153.247,248.477,154.386,248.477z"/>
			<path style="fill:#407BFF;" d="M151.929,253.46h20.22c3.783,0,3.783-5.863,0-5.863h-20.22
				C148.157,247.597,148.145,253.46,151.929,253.46z"/>
			<path style="opacity:0.3;enable-background:new    ;" d="M151.929,253.46h20.22c3.783,0,3.783-5.863,0-5.863h-20.22
				C148.157,247.597,148.145,253.46,151.929,253.46z"/>
			<path style="fill:#263238;" d="M277.44,456.322c-8.298,0-15.053-7.498-15.053-16.722s6.755-16.733,15.053-16.733
				c8.298,0,15.042,7.498,15.042,16.733C292.482,448.835,285.727,456.322,277.44,456.322z M277.44,429.907
				c-4.412,0-8.001,4.343-8.001,9.693c0,5.349,3.589,9.681,8.001,9.681c4.412,0,8.001-4.343,8.001-9.681
				C285.441,434.262,281.852,429.907,277.44,429.907z"/>
			<path style="fill:#263238;" d="M198.885,456.441c-30.084,0-54.588-27.815-54.588-62s24.479-62.012,54.588-62.012
				c30.108,0,54.588,27.815,54.588,62.012S228.969,456.441,198.885,456.441z M198.885,339.902
				c-25.972,0-47.091,24.467-47.091,54.588c0,30.12,21.119,54.527,47.091,54.527c25.972,0,47.091-24.455,47.091-54.527
				C245.976,364.418,224.844,339.902,198.885,339.902z"/>
			<path style="opacity:0.2;fill:#FFFFFF;" d="M198.885,456.441c-30.084,0-54.588-27.815-54.588-62s24.479-62.012,54.588-62.012
				c30.108,0,54.588,27.815,54.588,62.012S228.969,456.441,198.885,456.441z M198.885,339.902
				c-25.972,0-47.091,24.467-47.091,54.588c0,30.12,21.119,54.527,47.091,54.527c25.972,0,47.091-24.455,47.091-54.527
				C245.976,364.418,224.844,339.902,198.885,339.902z"/>
			<path style="fill:#263238;" d="M198.885,445.705c-24.759,0-44.883-22.975-44.883-51.215c0-28.24,20.137-51.227,44.883-51.227
				c24.746,0,44.883,22.975,44.883,51.227C243.768,422.742,223.631,445.705,198.885,445.705z M198.885,346.586
				c-22.927,0-41.572,21.483-41.572,47.904c0,26.421,18.645,47.892,41.572,47.892c22.927,0,41.572-21.483,41.572-47.892
				c0-26.408-18.657-47.952-41.572-47.952V346.586z"/>
			<g style="opacity:0.7;">
				<path style="fill:#FFFFFF;" d="M198.885,445.705c-24.759,0-44.883-22.975-44.883-51.215c0-28.24,20.137-51.227,44.883-51.227
					c24.746,0,44.883,22.975,44.883,51.227C243.768,422.742,223.631,445.705,198.885,445.705z M198.885,346.586
					c-22.927,0-41.572,21.483-41.572,47.904c0,26.421,18.645,47.892,41.572,47.892c22.927,0,41.572-21.483,41.572-47.892
					c0-26.408-18.657-47.952-41.572-47.952V346.586z"/>
			</g>
			<g>
				<path style="fill:#263238;" d="M194.013,314.682c25.271,0,50.554-0.145,75.837,0c8.001,0,14.196,5.677,14.436,14.411
					c0.103,4.119,0,8.262,0,12.382v76.947c0,6.789,0.514,15.474-8.458,15.957c-2.64,0.133-2.652,4.482,0,4.336
					c8.241-0.435,12.573-7.115,12.573-15.268v-75.038c0-12.478,2.96-30.283-10.413-36.492c-4.572-2.126-9.841-1.57-14.722-1.57
					h-69.254c-1.133,0.089-1.983,1.133-1.898,2.33C192.191,313.749,192.998,314.602,194.013,314.682z"/>
				<g style="opacity:0.7;">
					<path style="fill:#FFFFFF;" d="M194.013,314.682c25.271,0,50.554-0.145,75.837,0c8.001,0,14.196,5.677,14.436,14.411
						c0.103,4.119,0,8.262,0,12.382v76.947c0,6.789,0.514,15.474-8.458,15.957c-2.64,0.133-2.652,4.482,0,4.336
						c8.241-0.435,12.573-7.115,12.573-15.268v-75.038c0-12.478,2.96-30.283-10.413-36.492c-4.572-2.126-9.841-1.57-14.722-1.57
						h-69.254c-1.133,0.089-1.983,1.133-1.898,2.33C192.191,313.749,192.998,314.602,194.013,314.682z"/>
				</g>
				<path style="fill:#407BFF;" d="M211.627,305.332h48.966c2.336,0,4.229,2.001,4.229,4.469v1.812c0,2.468-1.893,4.469-4.229,4.469
					h-48.966c-2.336,0-4.229-2.001-4.229-4.469v-1.812C207.398,307.333,209.291,305.332,211.627,305.332z"/>
				<path style="opacity:0.3;enable-background:new    ;" d="M211.627,305.332h48.966c2.336,0,4.229,2.001,4.229,4.469v1.812
					c0,2.468-1.893,4.469-4.229,4.469h-48.966c-2.336,0-4.229-2.001-4.229-4.469v-1.812
					C207.398,307.333,209.291,305.332,211.627,305.332z"/>
			</g>
			<path style="fill:#B97964;" d="M252.86,305.398c0,0,2.797,10.191,2.079,10.594c-0.717,0.403-3.221,1.032-4.784,0.118
				c0,0-2.184,1.135-3.735-0.505l-0.84-1.163c0,0-1.123,2.343-3.73,0.065c-2.607-2.278-3.758-6.375-4.071-9.221l-3.18-0.765
				l4.082-10.477c0,0,12.856,6.484,15.418,7.608c2.561,1.123,3.777,3.378,3.74,3.68L252.86,305.398z"/>
			<g>
				<g>
					<rect x="306.608" y="429.17" style="fill:#263238;" width="59.211" height="4.749"/>
					<rect x="306.608" y="429.17" style="opacity:0.7;fill:#FFFFFF;" width="59.211" height="4.749"/>
				</g>
				<polygon style="fill:#263238;" points="284.632,390.925 306.892,433.358 310.788,431.542 288.455,388.486 				"/>
				<polygon style="opacity:0.7;fill:#FFFFFF;" points="284.632,390.925 306.892,433.358 310.788,431.542 288.455,388.486 				"/>
			</g>
		</g>
		<g>
			<g>
				<path style="fill:#B97964;" d="M248.917,234.43c0,0-0.217,9.442,1.348,10.786c1.565,1.344,2.222-1.526,2.222-1.526
					s-0.528,3.202,0.801,3.61c1.595,0.49,2.27-2.52,2.27-2.52s-0.324,2.632,0.882,2.916c1.252,0.294,2.254-3.049,2.254-3.049
					s0.122,1.897,1.073,1.619c0.95-0.278,3.215-7.332,2.47-9.806s-9.904-5.052-12.018-5.204c-2.114-0.152-2.066-0.333-5.807,1.327
					C245.992,233.352,247.629,233.922,248.917,234.43L248.917,234.43z"/>
			</g>
			<g>
				<path style="opacity:0.2;" d="M252.639,243.724c0.001-0.005,0.002-0.009,0.002-0.013l0.654-5.627
					c0.008-0.076-0.054-0.147-0.139-0.158c-0.085-0.012-0.163,0.042-0.171,0.115l-0.654,5.627c-0.008,0.076,0.053,0.147,0.139,0.158
					C252.551,243.837,252.623,243.792,252.639,243.724z"/>
			</g>
			<g>
				<path style="opacity:0.2;" d="M255.746,244.658c0-0.001,0-0.002,0.001-0.003l1.058-5.355c0.014-0.075-0.042-0.149-0.126-0.166
					c-0.085-0.017-0.149,0.021-0.18,0.104l-1.058,5.355c-0.015,0.075,0.042,0.149,0.126,0.166
					C255.65,244.775,255.729,244.73,255.746,244.658z"/>
			</g>
			<g>
				<path style="opacity:0.2;" d="M258.888,244.5l0.9-3.956c0.017-0.074-0.038-0.15-0.122-0.169
					c-0.084-0.019-0.166,0.025-0.183,0.099l-0.9,3.956c-0.017,0.074,0.038,0.15,0.122,0.169
					C258.789,244.618,258.871,244.574,258.888,244.5z"/>
			</g>
		</g>
		<g>
			<g>
				<path style="fill:#B97964;" d="M300.146,232.396c0,0,2.03-1.749,4.012-0.924c1.982,0.825,1.337,2.411,1.337,2.411
					s4.014,0.411,3.023,2.385l-0.811,1.388c0,0,2.011,0.092,2.551,2.47c0.54,2.378-8.181,9.612-8.181,9.612l-0.676,2.336
					l-10.955-4.135l1.408-3.528L300.146,232.396z"/>
			</g>
			<g>
				<g>
					<g>
						<g style="opacity:0.2;">
							<path d="M300.365,233.464c0,0,2.382,6.43,1.572,8.408c-0.811,1.978-2.77-0.36-2.77-0.36s1.998,2.706,0.964,3.709
								c-1.241,1.205-3.283-1.255-3.283-1.255s1.541,2.276,0.562,3.107c-1.016,0.862-3.519-1.75-3.519-1.75s0.782,1.808-0.226,2
								c-1.008,0.192-6.426-5.248-6.906-7.883c-0.48-2.634,5.697-9.371,7.829-9.9c2.093-0.52,4.895,0.37,8.112,2.43L300.365,233.464
								L300.365,233.464z"/>
						</g>
						<g>
							<path style="fill:#D89380;" d="M299.326,232.756c0,0,2.382,6.43,1.572,8.408c-0.811,1.978-2.77-0.36-2.77-0.36
								s1.998,2.706,0.964,3.709c-1.241,1.205-3.283-1.255-3.283-1.255s1.541,2.276,0.562,3.107c-1.016,0.862-3.519-1.75-3.519-1.75
								s0.782,1.808-0.226,2.001c-1.008,0.192-6.426-5.249-6.906-7.883c-0.48-2.634,5.697-9.371,7.829-9.901
								c2.093-0.52,4.895,0.37,8.112,2.43L299.326,232.756L299.326,232.756z"/>
						</g>
						<g>
							<path style="opacity:0.2;" d="M298.003,240.908c-0.003-0.004-0.006-0.007-0.008-0.011l-3.258-4.883
								c-0.043-0.066-0.02-0.161,0.053-0.212c0.073-0.051,0.171-0.038,0.212,0.026l3.258,4.884c0.043,0.066,0.02,0.16-0.053,0.212
								C298.138,240.971,298.05,240.964,298.003,240.908z"/>
						</g>
						<g>
							<path style="opacity:0.2;" d="M295.577,243.235c0-0.001-0.001-0.001-0.002-0.003l-3.502-4.442
								c-0.049-0.062-0.032-0.157,0.038-0.213c0.07-0.056,0.148-0.05,0.215,0.011l3.502,4.442c0.049,0.062,0.031,0.157-0.038,0.213
								C295.721,243.298,295.627,243.294,295.577,243.235z"/>
						</g>
						<g>
							<path style="opacity:0.2;" d="M292.603,244.572l-2.697-3.226c-0.051-0.06-0.036-0.156,0.033-0.213
								c0.068-0.057,0.165-0.055,0.215,0.006l2.697,3.226c0.051,0.06,0.036,0.156-0.033,0.213
								C292.75,244.635,292.653,244.633,292.603,244.572z"/>
						</g>
					</g>
				</g>
			</g>
			<path style="fill:#B97964;" d="M304.874,231.88c0,0-1.712-1.256-3.652-0.617c-0.982,0.324-5.101,4.082-4.032,5.004
				c1.069,0.922,3.503-0.497,3.503-0.497s-3.092,1.822-1.587,3.202c1.505,1.38,3.404-0.434,3.404-0.434s-1.158,1.204,0,2.372
				c1.158,1.168,4.967,1.225,4.967,1.225l-2.175-5.527L304.874,231.88z"/>
			<g>
				<g>
					<g>
						<path style="fill:#D89380;" d="M315.581,236.105c-1.489-1.56-3.454-1.294-7.274-1.277l-0.217,1.495
							c0,0-4.944,4.154-5.32,6.259c-0.375,2.105,2.533,1.18,2.533,1.18s-3.137,1.215-2.801,2.616
							c0.403,1.682,3.445,0.699,3.445,0.699s-2.521,1.097-2.138,2.323c0.396,1.272,3.909,0.407,3.909,0.407s-1.629,1.108-0.881,1.81
							c0.748,0.702,8.238-0.99,10.053-2.958C318.706,246.692,317.098,237.694,315.581,236.105z"/>
						<g>
							<path style="opacity:0.2;" d="M305.352,243.916c0.004-0.001,0.009-0.003,0.013-0.005l5.367-2.379
								c0.072-0.032,0.103-0.125,0.069-0.207c-0.034-0.083-0.124-0.124-0.193-0.092l-5.367,2.379
								c-0.072,0.032-0.103,0.125-0.069,0.207C305.205,243.897,305.283,243.938,305.352,243.916z"/>
						</g>
						<g>
							<path style="opacity:0.2;" d="M306.154,247.18c0.001,0,0.002-0.001,0.003-0.001l5.336-1.875
								c0.074-0.026,0.111-0.116,0.082-0.2c-0.029-0.085-0.098-0.121-0.187-0.106l-5.337,1.875c-0.074,0.026-0.111,0.116-0.082,0.2
								C305.999,247.157,306.081,247.204,306.154,247.18z"/>
						</g>
						<g>
							<path style="opacity:0.2;" d="M307.95,249.902l4.005-1.28c0.075-0.024,0.114-0.113,0.086-0.198
								c-0.027-0.085-0.11-0.135-0.185-0.111l-4.006,1.28c-0.075,0.024-0.114,0.113-0.087,0.198
								C307.792,249.876,307.875,249.926,307.95,249.902z"/>
						</g>
					</g>
				</g>
			</g>
		</g>
	</g>
</g>
</svg>
