<?xml version="1.0" encoding="utf-8"?>
<!-- Generator: Adobe Illustrator 27.5.0, SVG Export Plug-In . SVG Version: 6.00 Build 0)  -->
<svg version="1.1" xmlns="http://www.w3.org/2000/svg" xmlns:xlink="http://www.w3.org/1999/xlink" x="0px" y="0px"
	 viewBox="0 0 500 500" style="enable-background:new 0 0 500 500;" xml:space="preserve">
<g id="BACKGROUND">
	<g style="opacity:0.7;">
		<defs>
			<rect id="SVGID_1_" style="opacity:0.7;" width="500" height="500"/>
		</defs>
		<clipPath id="SVGID_00000017510988161484428960000000287785270651050391_">
			<use xlink:href="#SVGID_1_"  style="overflow:visible;"/>
		</clipPath>
		<path style="opacity:0.6;clip-path:url(#SVGID_00000017510988161484428960000000287785270651050391_);fill:#E1F6EA;" d="
			M-51.881,277.392c9.661-19.966,28.549-34.481,49.344-42.198c24.842-9.218,52.934-9.381,77.882-0.452
			c41.469,14.842,74.708,53.608,118.736,54.855c24.92,0.706,49.057-11.561,66.442-29.43c17.385-17.868,28.636-40.894,36.449-64.568
			c11.046-33.471,16.13-69.729,35.615-99.1c8.212-12.38,19.459-23.551,33.718-27.719c22.902-6.695,46.368,5.815,68.957,13.502
			c26.871,9.145,57.979,11.171,82.479-3.164c26.378-15.433,40.095-49.681,31.665-79.057L-28.436-17.013L-51.881,277.392z"/>
		<path style="opacity:0.6;clip-path:url(#SVGID_00000017510988161484428960000000287785270651050391_);fill:#E1F6EA;" d="
			M576.538,220.015c-15.48-41.009-53.701-72.569-96.898-80.01c-43.197-7.441-89.775,9.512-118.084,42.979
			c-20.495,24.229-31.067,55.033-44.968,83.561c-13.9,28.529-33.454,56.941-63.17,68.08c-18.647,6.99-39.266,6.335-59.016,3.784
			c-33.566-4.336-66.319-13.84-99.927-17.84c-33.608-4-69.383-1.989-98.585,15.121c-41.845,24.519-61.392,74.052-73.799,120.938
			c-1.525,5.763-1.628,12.415-3.315,18.133c-2.879,9.758-3.409,20.2-1.53,30.199h659.29V220.015z"/>
		
			<path style="opacity:0.6;clip-path:url(#SVGID_00000017510988161484428960000000287785270651050391_);fill:none;stroke:#9AE1D4;stroke-miterlimit:10;" d="
			M169.425,593.11c2.916-28.641,6.956-59.735,27.41-79.994c18.799-18.62,46.956-23.444,73.29-26.013
			c26.334-2.569,54.129-4.24,76.274-18.72c27.068-17.698,39.619-50.539,47.767-81.836c8.148-31.297,14.101-64.452,33.558-90.284
			c20.818-27.64,55.792-43.239,90.393-42.944c34.602,0.295,68.322,15.68,93.243,39.687V593.11H169.425z"/>
		
			<path style="opacity:0.6;clip-path:url(#SVGID_00000017510988161484428960000000287785270651050391_);fill:none;stroke:#9AE1D4;stroke-miterlimit:10;" d="
			M320.911-32.048c0,0-71.956,24.579-96.229,104.846c-11.351,37.537-37.818,70.987-72.381,89.516
			c-13.303,7.131-28.917,11.828-43.481,7.863c-14.59-3.972-25.655-15.94-33.773-28.697c-8.117-12.757-14.161-26.841-23.35-38.85
			c-9.189-12.008-22.623-22.105-37.743-22.201c-14.035-0.089-26.721,8.366-36.848,18.083c-10.127,9.717-18.795,21.076-30.212,29.239
			c-10.867,7.771-23.997,12.335-37.341,12.98c-19.667,0.95-38.687-6.356-57.019-13.543l82.505-271.625L320.911-32.048z"/>
	</g>
	<g>
		<g>
			
				<ellipse style="fill:none;stroke:#80CED7;stroke-width:2.1456;stroke-miterlimit:10;stroke-dasharray:2.0588;" cx="236.886" cy="244.797" rx="214.985" ry="220.138"/>
			
				<ellipse transform="matrix(0.7674 -0.6412 0.6412 0.7674 -97.8119 222.1859)" style="fill:none;stroke:#80CED7;stroke-width:2.1456;stroke-miterlimit:10;stroke-dasharray:2.0588;" cx="257.291" cy="245.889" rx="223.662" ry="211.598"/>
		</g>
		<g>
			<g>
				<path style="fill:#007EA7;" d="M23.68,334.08c1.035-1.77,1.735-5.562,1.878-7.607c0.355,1.804,0.718,3.63,1.502,5.293
					c0.784,1.663,1.063,2.65,2.762,3.353c0.827,0.342,2.705,1.006,3.59,1.142C26.663,336.523,26,346.573,26,346.573
					s-1.371-6.058-2.631-7.831c-0.774-1.088-4.781-2.657-4.781-2.657S23.115,335.044,23.68,334.08z"/>
				<path style="fill:#007EA7;" d="M49.067,357.307c1.812-3.097,3.036-9.732,3.287-13.311c0.622,3.157,1.256,6.352,2.628,9.262
					c1.372,2.911,1.86,4.637,4.833,5.867c1.447,0.598,4.734,1.76,6.281,1.998c-11.809,0.458-12.969,18.043-12.969,18.043
					s-2.398-10.6-4.604-13.703c-1.354-1.904-8.366-4.65-8.366-4.65S48.079,358.994,49.067,357.307z"/>
				<path style="fill:#007EA7;" d="M38.504,401.854c1.036-1.77,1.735-5.562,1.879-7.607c0.355,1.804,0.718,3.63,1.502,5.293
					c0.784,1.664,1.063,2.65,2.762,3.353c0.827,0.342,2.705,1.006,3.59,1.142c-6.749,0.262-7.412,10.312-7.412,10.312
					s-1.37-6.058-2.631-7.831c-0.773-1.088-4.781-2.657-4.781-2.657S37.94,402.818,38.504,401.854z"/>
			</g>
			<g>
				<path style="fill:#007EA7;" d="M422.316,87.106c1.812-3.097,3.035-9.732,3.287-13.311c0.622,3.157,1.256,6.351,2.628,9.262
					c1.372,2.911,1.86,4.637,4.833,5.867c1.447,0.598,4.734,1.76,6.281,1.998c-11.809,0.458-12.969,18.043-12.969,18.043
					s-2.398-10.6-4.604-13.702c-1.354-1.904-8.366-4.65-8.366-4.65S421.329,88.794,422.316,87.106z"/>
				<path style="fill:#007EA7;" d="M450.9,131.701c1.036-1.77,1.735-5.562,1.879-7.607c0.355,1.804,0.718,3.63,1.502,5.293
					c0.784,1.663,1.063,2.65,2.762,3.353c0.827,0.342,2.705,1.006,3.59,1.142c-6.749,0.262-7.412,10.312-7.412,10.312
					s-1.371-6.058-2.631-7.831c-0.774-1.088-4.781-2.657-4.781-2.657S450.336,132.665,450.9,131.701z"/>
				<path style="fill:#007EA7;" d="M464.664,96.05c1.036-1.77,1.735-5.562,1.879-7.607c0.355,1.804,0.718,3.63,1.502,5.293
					c0.784,1.663,1.063,2.65,2.762,3.353c0.827,0.342,2.705,1.006,3.59,1.142c-6.749,0.262-7.412,10.312-7.412,10.312
					s-1.37-6.058-2.631-7.831c-0.773-1.088-4.781-2.657-4.781-2.657S464.1,97.015,464.664,96.05z"/>
			</g>
		</g>
	</g>
</g>
<g id="OBJECTS">
	<g>
		<g>
			<g>
				<path style="fill:#F4B1B6;" d="M377.395,233.348l-2.513-48.197l0.559-81.383l-90.762,10.62l1.117,29.315l-14.801,29.724
					l14.801,2.109c0,0,0.627,4.671,1.623,10.685l11.909-6.32c-2.85,4.353-6.388,9.077-11.023,11.441
					c1.48,8.174,3.435,17.056,5.356,20.055c3.864,6.031,34.359-1.384,34.359-1.384l2.793,16.477l-5.023,13.8L377.395,233.348z"/>
			</g>
			<g>
				<path style="fill:#003249;" d="M399.313,119.803c-4.073-7.965-13.328-11.73-13.328-11.73c0.526-4.829-0.046-9.839-2.113-14.235
					c-2.068-4.396-5.706-8.127-10.242-9.863c-4.971-1.902-10.496-1.328-15.798-0.865c-11.68,1.02-23.547,1.351-35.035-0.988
					c-11.489-2.339-22.663-7.541-30.555-16.212c1.245,8.112,6.408,15.24,13.572,19.244c-11.826-5.641-27.708-3.247-37.332,5.645
					c-3.339,3.085-6.143,7.208-6.089,11.755c1.727-2.641,3.912-3.993,6.761-5.35c2.849-1.357,5.945-2.119,9.052-2.67
					c-6.151,4.471-10.89,10.259-12.084,17.769c-1.073,6.749,1.411,13.962,6.411,18.62c-0.863-5.568,0.395-11.438,3.462-16.164
					c-1.313,3.388,0.406,7.259,2.873,9.927c3.821,4.133,9.358,6.418,14.951,7.051c3.982,0.451,8.002,0.113,11.947-0.649
					c-5.004-1.971-9.173-6.152-10.782-11.306c3.32,3.117,7.315,5.486,11.614,6.982c4.823,1.677,10.034,1.895,15.024,0.815
					l5.258-1.138l1.991,39.159h9.734l1.991-18.805c0,0,6.195-8.407,14.602-3.097c8.407,5.31,4.425,21.239,0,26.327
					c-4.425,5.088-9.513,4.204-9.513,4.204l29.91,24.567c0,0,5.931-25.673,13.453-41.16
					C396.568,142.148,403.386,127.768,399.313,119.803z"/>
			</g>
			<path style="fill:#007EA7;" d="M376.435,214.944c0,0-15.021,15.113-29.71,20.268c-14.689,5.154-20.936,5.079-20.936,5.079
				s-31.861,42.142-30.12,74.592c1.741,32.45-5.767,185.117-5.767,185.117h140.907c0,0-22.89-79.815-21.069-98.05
				c1.821-18.235,16.414-90.97,0-131.089C393.326,230.743,376.435,214.944,376.435,214.944z"/>
			<g>
				<path style="fill:#003249;" d="M356.301,152.855c-0.509-2.055-2.015-3.753-3.871-4.568c-0.92-0.413-1.95-0.608-2.924-0.494
					c-0.983,0.102-1.825,0.625-2.373,1.425c-0.571,0.785-0.91,1.758-1.181,2.751c-0.274,1.002-0.501,2.016-0.669,3.041
					c-0.332,2.049-0.481,4.126-0.44,6.201l-0.809-0.24c0.894-1.248,2.031-2.571,3.714-3.015c0.815-0.206,1.712-0.181,2.504,0.194
					c0.799,0.366,1.389,1.136,1.577,1.959c0.367,1.665-0.297,3.286-1.232,4.511c-0.945,1.246-2.221,2.234-3.662,2.763
					c1.365-0.692,2.534-1.728,3.338-2.989c0.797-1.238,1.321-2.759,0.935-4.117c-0.191-0.659-0.655-1.192-1.266-1.442
					c-0.611-0.247-1.33-0.267-1.989-0.089c-1.335,0.364-2.359,1.519-3.19,2.734l-0.752,1.098l-0.058-1.339
					c-0.092-2.136,0.047-4.284,0.446-6.385c0.19-1.052,0.439-2.092,0.738-3.118c0.3-1.025,0.671-2.08,1.357-2.998
					c0.671-0.928,1.82-1.549,2.949-1.599c1.127-0.076,2.231,0.197,3.206,0.689C354.586,148.83,356.021,150.751,356.301,152.855z"/>
			</g>
			<path style="fill:#003249;" d="M300.229,152.439c0,2.235-1.172,4.047-2.619,4.047c-1.446,0-2.619-1.812-2.619-4.047
				c0-2.235,1.172-4.047,2.619-4.047C299.056,148.391,300.229,150.203,300.229,152.439z"/>
			<g>
				<path style="fill:#003249;" d="M306.01,144.421c-1.049-1.253-2.223-2.33-3.552-3.123c-1.303-0.815-2.702-1.403-4.115-1.744
					c-0.708-0.169-1.445-0.203-2.161-0.192c-0.716,0.003-1.404-0.036-2.111-0.142c-0.708-0.105-1.433-0.207-2.208-0.34
					c-0.775-0.119-1.587-0.243-2.531-0.458l-0.136-0.352c0.579-0.804,1.344-1.374,2.173-1.797c0.828-0.437,1.734-0.701,2.658-0.825
					c0.925-0.125,1.871-0.04,2.765,0.229c0.895,0.278,1.745,0.654,2.572,1.037c1.66,0.764,3.124,1.851,4.312,3.145
					c1.163,1.315,2.113,2.784,2.663,4.379L306.01,144.421z"/>
			</g>
			<polygon style="fill:#F4B1B6;" points="380.115,363.685 337.313,353.19 329.861,437.082 316.52,500 350.582,500 368.559,435.37 
							"/>
			<g>
				<path style="fill:#003249;" d="M353.651,251.956c-2.89,3.251-5.268,6.938-7.041,10.884c-1.817,3.931-2.934,8.14-3.661,12.403
					c-0.715,4.269-1.145,8.59-1.585,12.917l-1.271,12.978c-0.865,8.649-1.554,17.313-2.035,25.988
					c-0.471,8.675-0.693,17.367-0.53,26.064c-0.242-4.342-0.38-8.692-0.43-13.044c-0.015-4.352,0.083-8.704,0.235-13.054
					c0.332-8.7,1.03-17.379,1.822-26.044l1.357-12.979c0.482-4.318,0.893-8.664,1.727-12.956c0.82-4.285,2.031-8.537,3.957-12.469
					C348.126,258.722,350.649,255.103,353.651,251.956z"/>
			</g>
			<g>
				<path style="fill:#003249;" d="M403.649,293.439c0.109,6.325,0.257,12.649,0.299,18.974l0.098,9.487l0.033,9.487
					c0.019,6.325,0.059,12.649,0.019,18.974c-0.035,6.325-0.014,12.649-0.094,18.974l-0.006,0.453l-0.431-0.108l-11.736-2.952
					l-11.715-3.042l11.819,2.608l11.797,2.698l-0.437,0.344c-0.08-6.325-0.06-12.649-0.094-18.974
					c-0.04-6.325,0-12.649,0.019-18.974l0.033-9.487l0.098-9.487C403.392,306.089,403.54,299.764,403.649,293.439z"/>
			</g>
			<polygon style="fill:#003249;" points="378.613,373.002 380.115,363.685 403.649,369.335 			"/>
			<polygon style="fill:#003249;" points="342.918,202.751 328.019,210.015 329.132,216.578 			"/>
			<g style="opacity:0.2;">
				<g>
					<path style="fill:#E1F6EA;" d="M305.494,85.035c2.441,0.715,4.878,1.395,7.339,1.962c2.463,0.556,4.936,1.054,7.43,1.423
						c2.491,0.391,4.999,0.655,7.516,0.859c2.518,0.195,5.047,0.274,7.59,0.322c-2.522,0.343-5.074,0.448-7.624,0.403
						c-2.551-0.035-5.099-0.277-7.624-0.652c-2.522-0.397-5.025-0.927-7.47-1.657C310.203,86.977,307.799,86.114,305.494,85.035z"/>
				</g>
				<g>
					<path style="fill:#E1F6EA;" d="M352.667,94.28c-3.074,2.172-6.491,3.89-10.096,5.048c-3.61,1.139-7.388,1.788-11.188,1.842
						c-3.801,0.106-7.613-0.441-11.266-1.513c-3.666-1.063-7.077-2.726-10.582-4.011c-3.471-1.353-7.144-2.149-10.857-2.219
						c-3.703-0.113-7.378,0.91-10.487,2.931c-1.607,0.959-2.887,2.264-4.034,3.752c-1.146,1.471-2.158,3.053-3.124,4.66
						c-1.928,3.222-3.607,6.596-5.164,10.023c1.375-3.506,2.974-6.927,4.789-10.239c0.912-1.654,1.917-3.261,3.047-4.789
						c0.568-0.762,1.177-1.499,1.856-2.182c0.673-0.7,1.47-1.263,2.247-1.804c1.588-1.06,3.321-1.956,5.181-2.468
						c1.852-0.534,3.783-0.764,5.698-0.739c3.823,0.038,7.627,0.831,11.176,2.194c3.55,1.335,6.93,3.012,10.499,4.073
						c3.56,1.086,7.285,1.606,11.014,1.613C338.84,100.485,346.314,98.322,352.667,94.28z"/>
				</g>
			</g>
			<polygon style="fill:#F4B1B6;" points="270.994,173.427 287.368,172.973 285.795,175.537 			"/>
		</g>
		<g>
			<g>
				
					<ellipse transform="matrix(0.2337 -0.9723 0.9723 0.2337 -132.6266 222.6429)" style="fill:#9AE1D4;" cx="74.939" cy="195.464" rx="39.748" ry="39.748"/>
				<polygon style="fill:#9AE1D4;" points="105.832,201.965 130.358,209.512 104.26,211.398 				"/>
			</g>
			<g>
				<g>
					
						<rect x="55.854" y="170.938" transform="matrix(0.9895 -0.1446 0.1446 0.9895 -27.5793 12.9727)" style="fill:#003249;" width="39.215" height="50.585"/>
					
						<rect x="56.575" y="170.833" transform="matrix(0.9895 -0.1446 0.1446 0.9895 -27.5565 13.0757)" style="fill:#007EA7;" width="39.216" height="50.585"/>
					
						<rect x="59.926" y="175.713" transform="matrix(0.9895 -0.1446 0.1446 0.9895 -27.6939 13.1061)" style="fill:#FFFFFF;" width="32.794" height="42.746"/>
					<path style="fill:#003249;" d="M77.557,164.935l-11.618,1.698c-1.865,0.273-3.157,2.006-2.884,3.871l0.283,1.937l18.373-2.685
						l-0.283-1.937C81.156,165.954,79.423,164.663,77.557,164.935z"/>
					<g>
						<path style="fill:#EEEEFE;" d="M67.099,183.195c0.252,1.723-0.941,3.324-2.664,3.575c-1.723,0.252-3.324-0.941-3.575-2.664
							c-0.252-1.723,0.941-3.324,2.664-3.575C65.246,180.28,66.847,181.472,67.099,183.195z"/>
						
							<polyline style="fill:none;stroke:#007EA7;stroke-width:0.9704;stroke-linecap:round;stroke-linejoin:round;stroke-miterlimit:10;" points="
							62.119,182.951 64.128,184.448 66.79,180.875 						"/>
						<g>
							
								<line style="fill:none;stroke:#9AE1D4;stroke-width:0.9704;stroke-linecap:round;stroke-linejoin:round;stroke-miterlimit:10;" x1="69.48" y1="180.855" x2="87.14" y2="178.275"/>
							
								<line style="fill:none;stroke:#9AE1D4;stroke-width:0.9704;stroke-linecap:round;stroke-linejoin:round;stroke-miterlimit:10;" x1="69.765" y1="182.805" x2="87.425" y2="180.225"/>
							
								<line style="fill:none;stroke:#9AE1D4;stroke-width:0.9704;stroke-linecap:round;stroke-linejoin:round;stroke-miterlimit:10;" x1="70.05" y1="184.756" x2="87.71" y2="182.175"/>
						</g>
					</g>
					<g>
						<path style="fill:#EEEEFE;" d="M68.55,193.127c0.252,1.723-0.941,3.324-2.664,3.576c-1.723,0.252-3.324-0.941-3.576-2.664
							c-0.252-1.723,0.941-3.324,2.664-3.575C66.697,190.212,68.298,191.404,68.55,193.127z"/>
						
							<polyline style="fill:none;stroke:#007EA7;stroke-width:0.9704;stroke-linecap:round;stroke-linejoin:round;stroke-miterlimit:10;" points="
							63.57,192.883 65.579,194.38 68.241,190.807 						"/>
						<g>
							
								<line style="fill:none;stroke:#9AE1D4;stroke-width:0.9704;stroke-linecap:round;stroke-linejoin:round;stroke-miterlimit:10;" x1="70.931" y1="190.787" x2="88.592" y2="188.207"/>
							
								<line style="fill:none;stroke:#9AE1D4;stroke-width:0.9704;stroke-linecap:round;stroke-linejoin:round;stroke-miterlimit:10;" x1="71.216" y1="192.738" x2="88.877" y2="190.157"/>
							
								<line style="fill:none;stroke:#9AE1D4;stroke-width:0.9704;stroke-linecap:round;stroke-linejoin:round;stroke-miterlimit:10;" x1="71.501" y1="194.688" x2="89.162" y2="192.107"/>
						</g>
					</g>
					<g>
						<path style="fill:#EEEEFE;" d="M70.001,203.059c0.252,1.723-0.941,3.324-2.664,3.575c-1.723,0.252-3.324-0.941-3.575-2.664
							c-0.252-1.723,0.941-3.324,2.664-3.575C68.149,200.144,69.749,201.337,70.001,203.059z"/>
						
							<polyline style="fill:none;stroke:#007EA7;stroke-width:0.9704;stroke-linecap:round;stroke-linejoin:round;stroke-miterlimit:10;" points="
							65.021,202.815 67.031,204.312 69.692,200.74 						"/>
						<g>
							
								<line style="fill:none;stroke:#9AE1D4;stroke-width:0.9704;stroke-linecap:round;stroke-linejoin:round;stroke-miterlimit:10;" x1="72.382" y1="200.719" x2="90.043" y2="198.139"/>
							
								<line style="fill:none;stroke:#9AE1D4;stroke-width:0.9704;stroke-linecap:round;stroke-linejoin:round;stroke-miterlimit:10;" x1="72.667" y1="202.67" x2="90.328" y2="200.089"/>
							
								<line style="fill:none;stroke:#9AE1D4;stroke-width:0.9704;stroke-linecap:round;stroke-linejoin:round;stroke-miterlimit:10;" x1="72.952" y1="204.62" x2="90.613" y2="202.04"/>
						</g>
					</g>
					<path style="fill:#007EA7;" d="M84.916,172.269l-23.928,3.496c-0.754,0.11-1.455-0.412-1.566-1.167l-0.227-1.552l26.66-3.896
						l0.227,1.553C86.192,171.458,85.67,172.159,84.916,172.269z"/>
				</g>
				<g>
					<path style="fill:#EEEEFE;" d="M71.525,212.981c0.252,1.723-0.941,3.324-2.664,3.575c-1.723,0.252-3.324-0.941-3.575-2.664
						c-0.252-1.723,0.941-3.323,2.664-3.575C69.672,210.066,71.273,211.258,71.525,212.981z"/>
					
						<polyline style="fill:none;stroke:#007EA7;stroke-width:0.9704;stroke-linecap:round;stroke-linejoin:round;stroke-miterlimit:10;" points="
						66.545,212.737 68.555,214.234 71.216,210.661 					"/>
					<g>
						
							<line style="fill:none;stroke:#9AE1D4;stroke-width:0.9704;stroke-linecap:round;stroke-linejoin:round;stroke-miterlimit:10;" x1="73.906" y1="210.641" x2="91.567" y2="208.06"/>
						
							<line style="fill:none;stroke:#9AE1D4;stroke-width:0.9704;stroke-linecap:round;stroke-linejoin:round;stroke-miterlimit:10;" x1="74.191" y1="212.591" x2="91.852" y2="210.011"/>
						
							<line style="fill:none;stroke:#9AE1D4;stroke-width:0.9704;stroke-linecap:round;stroke-linejoin:round;stroke-miterlimit:10;" x1="74.476" y1="214.542" x2="92.137" y2="211.961"/>
					</g>
				</g>
			</g>
		</g>
		<g>
			<g>
				
					<ellipse transform="matrix(0.9781 -0.2081 0.2081 0.9781 -31.0594 95.626)" style="fill:#9AE1D4;" cx="439.061" cy="195.464" rx="39.748" ry="39.748"/>
				<polygon style="fill:#9AE1D4;" points="408.168,201.965 383.642,209.512 409.74,211.398 				"/>
			</g>
			<path style="fill:#F46A91;" d="M439.773,220.173l-1.153-0.754c-0.969-0.634-23.732-15.675-23.732-29.239
				c0-9.648,6.856-14.695,13.628-14.695c4.329,0,8.384,2.02,11.255,5.512c2.861-3.485,6.922-5.512,11.259-5.512
				c6.772,0,13.628,5.048,13.628,14.695c0,13.564-22.762,28.605-23.731,29.239L439.773,220.173z"/>
			<g style="opacity:0.5;">
				<path style="fill:#F46A91;" d="M452.153,175.537c0.72,0.225,1.398,0.562,2.01,1.051c1.091,0.872,1.822,2.12,2.342,3.416
					c1.906,4.751,1.172,10.219-0.766,14.957c-1.938,4.738-4.986,8.92-7.832,13.175c-2.651,3.962-5.164,8.032-7.935,11.906
					l0.954-0.624c0.969-0.634,23.731-15.675,23.731-29.239C464.658,181.066,458.539,176.063,452.153,175.537z"/>
			</g>
			
				<polyline style="fill:none;stroke:#FFFFFF;stroke-width:0.9704;stroke-linecap:round;stroke-linejoin:round;stroke-miterlimit:10;" points="
				413.431,200.155 439.773,200.155 443.198,186.94 445.066,211.398 448.537,191.212 450.806,204.693 454.01,184.137 
				456.012,200.422 465.356,200.422 			"/>
		</g>
		<g>
			<g>
				<ellipse style="fill:#003249;" cx="305.865" cy="296.741" rx="10.655" ry="18.142"/>
				<ellipse style="fill:#80CED7;" cx="305.865" cy="296.741" rx="7.967" ry="13.565"/>
			</g>
			<path style="fill:none;stroke:#003249;stroke-width:3.7733;stroke-miterlimit:10;" d="M230.182,214.203
				c-1.21-14.342-2.82-24.501-2.82-24.501"/>
			<path style="fill:#F4B1B6;" d="M233.246,118.87c0.872,11.23-0.09,22.601-2.836,33.525c-0.825,3.279-1.812,6.535-2.192,9.895
				c-0.696,6.146,0.664,12.314,1.143,18.481c0.73,9.387-0.934,19.364-6.882,26.663c-12.464,15.295-24.424,12.976-24.778,13.499
				c0,0,0.282,9.715,0.555,13.706c0.289,4.213,0.405,8.949-2.461,12.052c-2.309,2.5-5.942,3.212-9.332,3.509
				c-9.888,0.868-19.978-0.66-29.166-4.416c-4.338-1.773-8.759-4.329-10.673-8.606c-1.023-2.285-1.221-4.84-1.406-7.336
				c-1.303-17.608-2.606-35.215-3.908-52.823c-3.054,0.202-5.761-1.577-7.353-4.191c-3.228-5.298-2.877-11.977-2.024-18.123
				c2.109-15.193,6.976-30.599,17.505-41.753c14.152-14.992,37.226-19.866,57.079-14.307c3.951,1.106,7.822,2.595,11.306,4.762
				C223.619,107.012,229.089,113.456,233.246,118.87z"/>
			<path style="fill:#003249;" d="M231.179,148.615c0.634,0.352,1.424,0.07,2.072-0.256c2.36-1.186,4.501-2.982,5.625-5.373
				c1.124-2.391,1.071-5.421-0.539-7.515c-0.502-0.652-0.767-1.415-1.53-1.726c2.683-2.228,5.016-4.876,6.888-7.819
				c1.519-2.387,2.747-5.006,3.197-7.799c0.736-4.563-0.761-9.433-3.932-12.795c-3.172-3.362-7.589-5.177-12.187-4.707
				c3.37-1.394,5.857-4.468,7.151-7.878c1.293-3.41,1.361-7.567,1.16-11.208c-4.567,4.249-11.589,4.744-17.653,3.285
				c-6.065-1.459-11.587-4.564-17.417-6.783c-5.805-2.21-11.944-3.542-18.143-3.938c-4.201-0.268-8.531-0.206-11.875,2.352
				c2.253-3.421,2.732-7.549,1.3-11.387c-1.122,3.123-2.552,6.256-5.009,8.487c-2.712,2.463-6.399,3.568-10.026,4.088
				c-6.155,0.883-12.53,0.305-18.515,1.992c-6.196,1.747-12.425,6.243-12.927,12.66c-5.542-0.231-11.255,2.413-14.198,7.114
				c-2.1,3.354-2.701,7.4-4.003,11.137c-1.303,3.737-3.753,7.538-7.603,8.454c3.768,1.45,8.668,0.97,11.9-1.449
				c-2.466,3.573-4.466,7.533-5.318,11.79c-0.852,4.257-0.491,8.837,1.526,12.682c0.837,1.596,1.986,3.082,3.541,3.993
				c1.556,0.911,3.563,1.167,5.174,0.359c-0.194,7.095,5.005,13.781,11.505,16.633c0.305-2.359,0.61-4.719,0.914-7.078
				c0.216-1.671,0.436-3.358,1.028-4.935c0.592-1.577,1.6-3.056,3.063-3.891c2.441-1.394,5.701-0.654,7.801,1.214
				c2.1,1.868,3.198,4.635,3.722,7.396c0.524,2.761,0.678,5.207,1.017,7.997c4.152-4.658,6.351-10.612,7.461-16.752
				c1.111-6.14,0.947-12.444,0.358-18.655c1.772,4.122,7.112,5.636,11.431,4.423c4.32-1.213,7.828-4.27,11.429-6.947
				c3.601-2.676,7.777-5.137,12.253-4.83c3.003,0.206,5.892,1.733,7.755,4.098c1.185-3.268,1.014-6.596-1.037-9.403
				c2.104,3.184,5.801,4.957,9.489,5.938c3.688,0.981,7.531,1.323,11.18,2.441c3.649,1.118,7.242,3.199,8.975,6.599
				C230.967,136.077,231.284,142.491,231.179,148.615z"/>
			<path style="fill:#003249;" d="M193.049,159.803c0,2.551-1.439,4.619-3.215,4.619c-1.776,0-3.215-2.068-3.215-4.619
				s1.439-4.619,3.215-4.619C191.609,155.185,193.049,157.253,193.049,159.803z"/>
			<ellipse style="fill:#003249;" cx="220.054" cy="159.803" rx="2.892" ry="4.154"/>
			<g>
				<path style="fill:#003249;" d="M177.311,151.654c0.569-2.204,2.028-4.139,3.708-5.732c0.863-0.781,1.801-1.481,2.788-2.106
					c0.995-0.606,2.048-1.137,3.118-1.593c1.073-0.451,2.153-0.913,3.264-1.292c1.112-0.37,2.267-0.561,3.427-0.553
					c2.317,0.036,4.631,0.469,6.762,1.775l-0.02,0.436c-2.216,1.106-4.264,1.629-6.275,2.129c-1.004,0.241-2.002,0.377-3.021,0.445
					c-1.021,0.059-2.049,0.147-3.043,0.376c-0.996,0.225-1.966,0.511-2.919,0.875c-0.96,0.344-1.898,0.763-2.791,1.267
					c-1.811,0.975-3.429,2.333-4.597,4.142L177.311,151.654z"/>
			</g>
			<g>
				<path style="fill:#003249;" d="M228.403,151.805c-0.916-1.634-2.159-2.978-3.62-3.987c-0.714-0.52-1.474-0.967-2.262-1.341
					c-0.778-0.392-1.582-0.712-2.408-0.965c-0.827-0.259-1.695-0.385-2.556-0.475c-0.86-0.096-1.695-0.251-2.539-0.488
					c-1.69-0.495-3.428-0.986-5.355-1.978l-0.023-0.397c1.835-1.203,3.883-1.586,5.926-1.561c1.023,0.023,2.04,0.234,3.001,0.622
					c0.96,0.395,1.881,0.873,2.788,1.351c1.827,0.956,3.474,2.234,4.786,3.784c1.281,1.565,2.292,3.374,2.634,5.303L228.403,151.805
					z"/>
			</g>
			<g>
				<path style="fill:#F46A91;" d="M202.726,192.076c-2.306-0.919-4.859-1.166-7.31-0.782c2.931,2.855,7.712,6.494,13.05,6.494
					c0.318,0,0.628-0.021,0.935-0.053C207.844,195.209,205.485,193.175,202.726,192.076z"/>
				<path style="fill:#003249;" d="M221.532,185.151c0,0-5.837,3.726-13.346,4.154c-7.509,0.428-15.785-1.369-15.785-1.369
					s1.123,1.517,3.014,3.358c2.451-0.384,5.004-0.137,7.31,0.782c2.759,1.099,5.118,3.133,6.675,5.659
					C217.551,196.885,221.532,185.151,221.532,185.151z"/>
			</g>
			<path style="fill:#003249;" d="M197.7,220.934c-14.807,1.268-29.797-6.006-37.975-18.414c7.357,14.02,22.361,24.484,38.189,24.85
				L197.7,220.934z"/>
			<path style="fill:#80CED7;" d="M145.218,229.842l50.577,16.85l2.12-19.322c0,0,59.854,18.644,66.63,29.374
				C271.322,267.473,305.77,500,305.77,500H76.725l13.888-66.22L78.31,285.183L145.218,229.842z"/>
			<g>
				<path style="fill:#E1F6EA;" d="M211.712,231.921c-8.088-2.773-13.797-4.552-13.797-4.552l-2.12,19.322l-50.577-16.85
					l-8.315,6.878c22.608,40.583,37.982,84.933,49.03,130.079c10.725,43.826,17.484,88.504,23.713,133.202h40.887
					C247.03,409.404,239.239,318.149,211.712,231.921z"/>
			</g>
			<g>
				<path style="fill:#003249;" d="M149.754,263.513c4.91,1.995,9.848,3.922,14.728,5.998c4.873,2.091,9.708,4.289,14.412,6.764
					l-0.564,0.218c1.933-5.53,4.334-10.898,7.164-16.031c2.817-5.141,6.12-10.012,9.793-14.577l0.293-0.364l0.342,0.314
					c3.816,3.501,7.501,7.165,10.839,11.137c3.337,3.967,6.386,8.193,8.912,12.722l-0.385,0.022
					c1.778-3.916,3.207-7.997,4.262-12.18c-0.915,4.215-2.21,8.355-3.866,12.352l-0.164,0.396l-0.221-0.374
					c-2.624-4.435-5.707-8.584-9.099-12.456c-3.394-3.871-7.035-7.524-10.865-10.972l0.635-0.05
					c-3.618,4.549-6.834,9.409-9.684,14.471c-2.837,5.071-5.252,10.38-7.203,15.856l-0.158,0.442l-0.407-0.224
					c-4.632-2.544-9.411-4.829-14.237-7.006C159.458,267.782,154.6,265.66,149.754,263.513z"/>
			</g>
			<g>
				<path style="fill:#007EA7;" d="M184.652,262.98l8.286,7.538l19.726,177.987l27.596-6.585l-36.251-173.293l3.575-10.07
					c0,0-9.73-12.399-11.955-12.399C193.403,246.159,184.652,262.98,184.652,262.98z"/>
				<path style="fill:none;stroke:#E1F6EA;stroke-width:0.9433;stroke-miterlimit:10;" d="M190.585,270.06
					c2.604,0.128,5.221,0.227,7.811-0.066c2.59-0.293,5.17-0.995,7.387-2.366"/>
			</g>
			<g>
				<path style="fill:#003249;" d="M252.931,267.628c1.378,5.401,2.655,10.824,3.917,16.251c1.264,5.426,2.445,10.87,3.672,16.304
					c1.152,5.45,2.344,10.892,3.458,16.351c1.114,5.459,2.213,10.921,3.21,16.405c-1.38-5.401-2.656-10.824-3.919-16.25
					c-1.261-5.427-2.446-10.87-3.67-16.305c-1.15-5.451-2.345-10.892-3.457-16.351C255.028,278.574,253.929,273.112,252.931,267.628
					z"/>
			</g>
			<g>
				<polygon style="fill:#003249;" points="280.841,387.375 282.922,401.423 284.906,415.484 288.722,443.626 292.322,471.796 
					294.045,485.892 295.669,500 293.587,485.952 291.603,471.891 287.788,443.749 284.19,415.578 282.467,401.483 				"/>
			</g>
			<path style="fill:none;stroke:#003249;stroke-width:3.7733;stroke-miterlimit:10;" d="M138.758,173.427
				c0,0,8.457,137.905,67.025,133.631c27.885-2.035,27.252-59.059,24.4-92.855"/>
			<path style="fill:none;stroke:#003249;stroke-width:3.7733;stroke-miterlimit:10;" d="M205.783,307.058
				c0,0,29.749,160.123,65.146,158.091c35.397-2.032,34.841-141.511,34.841-141.511"/>
			<path style="fill:#F4B1B6;" d="M270.929,328.684l10.795-23.861l13.849-13.597v10.827l21.581-11.9
				c2.679-1.477,6.025,0.034,6.688,3.02l0.501,2.253c0.123,0.552,0.347,1.077,0.661,1.548l3.958,5.938
				c0.706,1.058,0.94,2.362,0.647,3.599l-1.549,6.542c-0.169,0.713-0.164,1.457,0.013,2.168l1.652,6.607
				c0.224,0.896,0.172,1.838-0.148,2.704l-1.425,3.847c-0.387,1.046-0.38,2.197,0.02,3.238l0,0c1.001,2.603-0.535,5.49-3.253,6.113
				l-25.569,5.868l-1.939,3.734L270.929,328.684z"/>
			<g>
				<path style="fill:#80CED7;" d="M95.625,270.861c0,0-38.165,27.561-26.6,56.068c11.566,28.507,48.405,84.205,76.035,108.326
					c27.63,24.121,67.395,43.857,67.395,43.857s38.299-39.032,54.087-65.785c15.788-26.753,35.524-62.715,35.524-62.715
					l-31.138-21.928l-70.171,79.819L95.625,270.861z"/>
				<g>
					<path style="fill:#003249;" d="M270.929,328.684c-2.426,3.054-4.93,6.04-7.446,9.016c-2.514,2.977-5.091,5.898-7.634,8.85
						c-2.6,2.902-5.169,5.83-7.798,8.706c-2.629,2.876-5.27,5.742-7.989,8.538c2.425-3.055,4.929-6.041,7.444-9.017
						c2.516-2.976,5.091-5.899,7.636-8.849c2.602-2.9,5.169-5.831,7.799-8.705C265.57,334.347,268.21,331.481,270.929,328.684z"/>
				</g>
				<g>
					<path style="fill:#003249;" d="M286.959,377.756c-3.131,5.285-6.349,10.515-9.581,15.736l-9.793,15.602l-9.977,15.484
						c-3.359,5.14-6.731,10.272-10.192,15.348c3.13-5.286,6.349-10.516,9.58-15.737l9.794-15.601l9.979-15.484
						C280.128,387.964,283.5,382.832,286.959,377.756z"/>
				</g>
				<g>
					<path style="fill:#003249;" d="M200.947,407.419c-1.531,1.953-2.986,3.945-4.303,6.022c-1.307,2.082-2.522,4.217-3.581,6.43
						c-1.078,2.204-1.999,4.481-2.82,6.798c-0.813,2.321-1.472,4.698-2.055,7.11c0.197-2.477,0.685-4.929,1.364-7.329
						c0.67-2.404,1.585-4.738,2.664-6.99c1.099-2.243,2.361-4.409,3.831-6.425C197.507,411.015,199.128,409.111,200.947,407.419z"/>
				</g>
				<g>
					<path style="fill:#003249;" d="M192.981,398.32c-3.862-4.878-7.666-9.801-11.437-14.751c-3.744-4.97-7.432-9.982-11.075-15.028
						c-3.649-5.042-7.167-10.179-10.621-15.361c-3.418-5.205-6.761-10.47-9.666-16.011c-5.484-11.177-11.035-22.3-17.44-32.949
						c-1.603-2.657-3.264-5.282-5.072-7.797c-1.791-2.527-3.842-4.849-6.012-7.071c-4.319-4.462-8.919-8.661-13.626-12.726
						c4.807,3.948,9.51,8.031,13.954,12.402c2.213,2.19,4.32,4.518,6.164,7.044c1.858,2.511,3.563,5.124,5.21,7.77
						c6.554,10.604,12.122,21.78,17.66,32.899c5.779,10.961,12.977,21.165,20.037,31.383c3.568,5.092,7.19,10.147,10.855,15.173
						C185.559,388.335,189.24,393.349,192.981,398.32z"/>
				</g>
				<g>
					<path style="fill:#003249;" d="M88.646,363.795c3.913,5.545,8.058,10.921,12.3,16.213c4.237,5.297,8.564,10.521,13.046,15.609
						c8.935,10.199,18.326,20.004,28.291,29.192c2.468,2.321,5.042,4.526,7.558,6.795l7.734,6.611
						c5.179,4.381,10.425,8.681,15.688,12.961c5.277,4.261,10.609,8.457,16.019,12.549c5.399,4.107,10.848,8.155,16.5,11.912
						c-11.447-7.306-22.295-15.511-32.973-23.894c-5.34-4.195-10.575-8.521-15.788-12.871l-7.77-6.585
						c-2.533-2.266-5.127-4.465-7.609-6.785c-9.939-9.272-19.363-19.091-28.197-29.411
						C104.623,385.764,96.249,375.043,88.646,363.795z"/>
				</g>
				<g>
					<path style="fill:#003249;" d="M256.785,344.356c2.388,2.782,4.816,5.514,7.363,8.129c2.549,2.612,5.157,5.166,7.92,7.547
						c2.706,2.443,5.562,4.723,8.473,6.916c2.92,2.175,5.998,4.151,9.361,5.619c-1.752-0.546-3.437-1.302-5.073-2.147
						c-1.625-0.867-3.185-1.852-4.709-2.882c-3.027-2.091-5.897-4.392-8.675-6.8c-2.732-2.459-5.372-5.024-7.824-7.76
						c-1.225-1.369-2.407-2.775-3.562-4.2C258.933,347.328,257.821,345.869,256.785,344.356z"/>
				</g>
			</g>
			<g>
				<path style="fill:#003249;" d="M136.48,153.279c0.415-1.469,2.155-2.323,3.678-2.009c1.557,0.272,2.815,1.43,3.589,2.737
					c0.799,1.331,1.212,2.768,1.679,4.17c0.451,1.412,0.872,2.826,1.278,4.251L147,163.47l-0.962-0.524
					c-0.755-0.411-1.539-0.807-2.307-1.152c-0.734-0.342-1.55-0.456-2.347-0.392c-1.615,0.085-2.882,1.432-3.244,3.013
					c-0.406,1.578,0.158,3.33,1.17,4.68c1,1.386,2.454,2.447,4.093,3.076c-1.71-0.416-3.3-1.401-4.477-2.774
					c-1.143-1.373-1.908-3.247-1.539-5.147c0.18-0.93,0.636-1.81,1.316-2.5c0.675-0.7,1.636-1.131,2.59-1.224
					c0.946-0.098,1.93,0.032,2.798,0.413c0.846,0.347,1.616,0.773,2.396,1.212l-0.665,0.517c-0.377-1.418-0.773-2.838-1.195-4.243
					c-0.212-0.703-0.431-1.403-0.667-2.092c-0.224-0.697-0.466-1.364-0.803-1.989c-0.648-1.247-1.72-2.304-3.09-2.66
					C138.739,151.284,137.085,151.897,136.48,153.279z"/>
			</g>
			<path style="fill:#007EA7;" d="M136.078,162.716c-0.659,1.026-0.946,2.245-1.128,3.451c-0.522,3.466-0.248,7.049,0.794,10.396
				c0.308,0.991,0.7,1.988,1.412,2.743c0.712,0.755,1.811,1.221,2.808,0.932c0.891-0.259,1.535-1.066,1.861-1.935
				c0.326-0.869,0.388-1.81,0.488-2.733c0.154-1.42,0.405-2.829,0.751-4.214c0.363-1.453,0.831-2.888,0.986-4.378
				c0.155-1.489-0.035-3.076-0.887-4.307C141.478,160.234,137.662,160.251,136.078,162.716z"/>
			<path style="fill:#F4B1B6;" d="M204.817,182.503c4.21,0.552,10.405-2.915,12.346-7.728c0,0-1.678,2.365-8.564,3.877
				c-6.885,1.512-9.781-0.222-9.781-0.222S200.607,181.951,204.817,182.503z"/>
			<g>
				<path style="fill:#003249;" d="M209.654,147.917c-0.616,2.341-0.766,4.759-0.588,7.137c0.168,2.384,0.748,4.714,1.508,6.965
					c0.78,2.251,1.824,4.408,3.025,6.474c1.185,2.076,2.501,4.083,3.904,6.035l0.138,0.193l-0.088,0.212
					c-0.516,1.237-1.226,2.396-2.128,3.378c-0.894,0.988-1.935,1.833-3.07,2.508c-2.261,1.36-4.962,1.992-7.537,1.684
					c2.598,0.052,5.121-0.784,7.236-2.166c1.056-0.697,2.007-1.547,2.804-2.516c0.788-0.974,1.465-2.04,1.916-3.203l0.05,0.404
					c-1.438-1.95-2.826-3.95-4.036-6.067c-1.192-2.124-2.228-4.349-2.993-6.673c-0.782-2.32-1.188-4.762-1.27-7.201
					C208.452,152.643,208.809,150.183,209.654,147.917z"/>
			</g>
			<g>
				<path style="fill:#003249;" d="M146.269,72.063c0.226,1.431-0.359,2.96-1.215,4.2c-0.876,1.248-2.04,2.246-3.289,3.054
					c-2.473,1.562-4.98,2.478-6.725,3.822c-1.699,1.28-3.003,3.209-3.74,5.452c-0.734,2.251-0.951,4.768-0.296,7.518
					c-2.177-1.885-3.165-5.085-2.878-8.127c0.268-3.053,1.799-6.149,4.445-8.128c2.614-1.924,5.405-2.546,7.744-3.414
					c1.158-0.411,2.281-0.92,3.313-1.591C144.671,74.186,145.584,73.313,146.269,72.063z"/>
			</g>
			<g>
				<path style="fill:#003249;" d="M178.811,74.261c4.414-1.695,9.381-1.604,13.954-0.915c4.613,0.71,8.958,2.017,13.134,3.204
					c4.215,1.202,8.119,2.376,11.769,2.084c0.932-0.085,1.768-0.229,2.623-0.529c0.853-0.301,1.705-0.727,2.488-1.286
					c1.562-1.118,2.912-2.729,3.371-5.058c1.033,2.171,0.48,5.07-0.966,7.238c-0.729,1.097-1.657,2.078-2.754,2.883
					c-1.093,0.814-2.393,1.427-3.649,1.824c-2.57,0.825-5.238,0.88-7.704,0.642c-1.24-0.12-2.437-0.347-3.605-0.584
					c-1.155-0.271-2.281-0.553-3.392-0.868c-4.447-1.278-8.563-2.982-12.63-4.545C187.372,76.765,183.373,75.324,178.811,74.261z"/>
			</g>
		</g>
	</g>
</g>
</svg>
